<?xml version="1.0" encoding="UTF-8" standalone="no"?>
<!-- Created with Inkscape (http://www.inkscape.org/) -->

<svg
   version="1.1"
   id="svg2"
   width="2933.3333"
   height="2933.3333"
   viewBox="0 0 2933.3333 2933.3333"
   sodipodi:docname="green_double_circle_check_mark.eps"
   xmlns:inkscape="http://www.inkscape.org/namespaces/inkscape"
   xmlns:sodipodi="http://sodipodi.sourceforge.net/DTD/sodipodi-0.dtd"
   xmlns="http://www.w3.org/2000/svg"
   xmlns:svg="http://www.w3.org/2000/svg">
  <defs
     id="defs6" />
  <sodipodi:namedview
     id="namedview4"
     pagecolor="#ffffff"
     bordercolor="#000000"
     borderopacity="0.25"
     inkscape:showpageshadow="2"
     inkscape:pageopacity="0.0"
     inkscape:pagecheckerboard="0"
     inkscape:deskcolor="#d1d1d1" />
  <g
     id="g8"
     inkscape:groupmode="layer"
     inkscape:label="ink_ext_XXXXXX"
     transform="matrix(1.3333333,0,0,-1.3333333,0,2933.3333)">
    <g
       id="g10"
       transform="scale(0.1)">
      <path
         d="M 0,0 H 22000 V 22000 H 0 V 0"
         style="fill:#ffffff;fill-opacity:1;fill-rule:nonzero;stroke:none"
         id="path12" />
      <path
         d="m 20536.5,15028.8 c -252,595.6 -556.4,1162 -911.2,1695.5 -18.8,-22.6 -39.2,-44.3 -61,-65 -135.6,-128.5 -269.5,-258.6 -401.9,-390.6 304.1,-470.4 567.2,-967.3 787.5,-1488 506.4,-1197.3 763.2,-2469.3 763.2,-3780.7 0,-1311.4 -256.8,-2583.4 -763.2,-3780.7 C 19460.7,6062.8 18760.3,5024 17868.2,4131.8 16976,3239.7 15937.2,2539.3 14780.7,2050.1 13583.4,1543.7 12311.4,1286.9 11000,1286.9 9688.6,1286.9 8416.6,1543.7 7219.3,2050.1 6062.8,2539.3 5024,3239.7 4131.8,4131.8 3239.7,5024 2539.3,6062.8 2050.1,7219.3 1543.7,8416.6 1286.9,9688.6 1286.9,11000 c 0,1311.4 256.8,2583.4 763.2,3780.7 489.2,1156.5 1189.6,2195.3 2081.7,3087.5 892.2,892.1 1931,1592.5 3087.5,2081.7 1197.3,506.4 2469.3,763.2 3780.7,763.2 1311.4,0 2583.4,-256.8 3780.7,-763.2 1156.5,-489.2 2195.3,-1189.6 3087.5,-2081.7 100.2,-100.3 198,-202.4 293.2,-306.3 171.5,102.7 344.1,202.6 517.8,299.8 15.7,8.8 31.6,17 47.8,24.5 -131.5,147.5 -267.7,291.7 -408.4,432.4 -950.4,950.4 -2057.3,1696.6 -3289.8,2217.9 -1276.2,539.8 -2631.7,813.5 -4028.8,813.5 -1397.1,0 -2752.6,-273.7 -4028.8,-813.5 C 5738.7,20015.2 4631.8,19269 3681.4,18318.6 2731,17368.2 1984.8,16261.3 1463.5,15028.8 923.699,13752.6 650,12397.1 650,11000 650,9602.9 923.699,8247.4 1463.5,6971.2 1984.8,5738.7 2731,4631.8 3681.4,3681.4 4631.8,2731 5738.7,1984.8 6971.2,1463.5 8247.4,923.703 9602.9,650 11000,650 c 1397.1,0 2752.6,273.703 4028.8,813.5 1232.5,521.3 2339.4,1267.5 3289.8,2217.9 950.4,950.4 1696.6,2057.3 2217.9,3289.8 539.8,1276.2 813.5,2631.7 813.5,4028.8 0,1397.1 -273.7,2752.6 -813.5,4028.8"
         style="fill:#47bb43;fill-opacity:1;fill-rule:nonzero;stroke:none"
         id="path14" />
      <path
         d="m 6211.9,11759.5 c 180.1,142.3 405.6,220.7 635.1,220.7 158.4,0 317,-37.5 458.6,-108.5 l 3077.8,-1541.8 c 1402.9,1745.5 2701.6,3166.6 3960.9,4334.8 1011.7,938.4 2027,1741.7 3075.7,2431.6 -1613.1,1698.1 -3892.9,2756.9 -6420,2756.9 -4889.6,0 -8853.2,-3963.6 -8853.2,-8853.2 0,-4889.6 3963.6,-8853.2 8853.2,-8853.2 4889.6,0 8853.2,3963.6 8853.2,8853.2 0,1697.7 -477.7,3283.7 -1306.4,4631 -944.2,-1017 -1823.8,-2150.5 -2709.6,-3486.2 -1098.6,-1656.3 -2109,-3483.7 -3086.1,-5251 -181.9,-328.9 -486.2,-879.4 -1089.3,-1052.4 -117.9,-33.8 -240.5,-50.9 -364.2,-50.9 0,0 0,0 -0.1,0 -528.1,0 -969.4,299.1 -1331.4,591.6 C 8681.3,7420.5 7657,8546 6572.6,9737.6 c -156.9,172.4 -319.2,350.8 -480.7,526.9 -191.5,209 -288.3,490.9 -265.7,773.4 22.7,282.7 163.3,545.7 385.7,721.6"
         style="fill:#47bb43;fill-opacity:1;fill-rule:nonzero;stroke:none"
         id="path16" />
      <path
         d="m 10549.4,9575.6 -3512.52,1759.7 c -147.18,73.7 -323.73,55.6 -452.86,-46.5 v 0 c -193.13,-152.7 -216.11,-437.4 -49.76,-618.9 1236.91,-1349.6 2371.48,-2659.3 3809.04,-3821.1 332.4,-268.7 742.2,-548.5 1153.1,-430.6 348.4,99.9 554.2,448.7 729.6,765.9 2077.3,3757.2 3910.6,7052.3 6925.5,9910.6 130,123.3 -23,330.9 -179.4,243.3 -2946.4,-1648.1 -5498.7,-4066.3 -8422.7,-7762.4"
         style="fill:#47bb43;fill-opacity:1;fill-rule:nonzero;stroke:none"
         id="path18" />
    </g>
  </g>
</svg>
