<?xml version="1.0" encoding="UTF-8"?>
<!DOCTYPE svg PUBLIC "-//W3C//DTD SVG 1.1//EN" "http://www.w3.org/Graphics/SVG/1.1/DTD/svg11.dtd">
<svg xmlns="http://www.w3.org/2000/svg" version="1.1" width="263px" height="332px" style="shape-rendering:geometricPrecision; text-rendering:geometricPrecision; image-rendering:optimizeQuality; fill-rule:evenodd; clip-rule:evenodd" xmlns:xlink="http://www.w3.org/1999/xlink">
<g><path style="opacity:1" fill="#fefefe" d="M -0.5,-0.5 C 87.1667,-0.5 174.833,-0.5 262.5,-0.5C 262.5,110.167 262.5,220.833 262.5,331.5C 174.833,331.5 87.1667,331.5 -0.5,331.5C -0.5,220.833 -0.5,110.167 -0.5,-0.5 Z"/></g>
<g><path style="opacity:1" fill="#fee9e4" d="M 218.5,81.5 C 217.625,77.0019 217.625,72.3353 218.5,67.5C 215.454,67.1826 213.787,68.5159 213.5,71.5C 212.833,71.5 212.167,71.5 211.5,71.5C 212.114,66.5527 214.781,64.8861 219.5,66.5C 220.576,71.5698 220.243,76.5698 218.5,81.5 Z"/></g>
<g><path style="opacity:1" fill="#e9999d" d="M 218.5,81.5 C 219.5,81.5 220.5,81.5 221.5,81.5C 223.167,81.5 224.833,81.5 226.5,81.5C 226.567,82.9587 226.234,84.2921 225.5,85.5C 224.833,85.5 224.167,85.5 223.5,85.5C 223.5,84.5 223.5,83.5 223.5,82.5C 221.194,82.9926 218.861,83.3259 216.5,83.5C 216.5,83.1667 216.5,82.8333 216.5,82.5C 216.824,78.4454 216.491,74.4454 215.5,70.5C 214.817,70.8627 214.15,71.1961 213.5,71.5C 213.787,68.5159 215.454,67.1826 218.5,67.5C 217.625,72.3353 217.625,77.0019 218.5,81.5 Z"/></g>
<g><path style="opacity:1" fill="#f1aea7" d="M 211.5,71.5 C 212.167,71.5 212.833,71.5 213.5,71.5C 212.833,73.1667 212.167,74.8333 211.5,76.5C 210.833,76.8333 210.167,77.1667 209.5,77.5C 209.557,76.391 209.89,75.391 210.5,74.5C 211.11,73.609 211.443,72.609 211.5,71.5 Z"/></g>
<g><path style="opacity:1" fill="#dd767c" d="M 204.5,74.5 C 205.429,75.9361 206.595,77.2695 208,78.5C 208.383,77.944 208.883,77.6107 209.5,77.5C 209.5,78.1667 209.5,78.8333 209.5,79.5C 207.5,79.5 205.5,79.5 203.5,79.5C 203.67,80.8221 203.337,81.9887 202.5,83C 199.961,83.7958 197.628,83.6291 195.5,82.5C 197.5,82.5 199.5,82.5 201.5,82.5C 201.183,79.4281 201.516,76.4281 202.5,73.5C 203.183,73.8627 203.85,74.1961 204.5,74.5 Z"/></g>
<g><path style="opacity:1" fill="#d25456" d="M 216.5,82.5 C 215.532,80.3926 215.198,78.0593 215.5,75.5C 214.041,75.4326 212.708,75.7659 211.5,76.5C 212.167,74.8333 212.833,73.1667 213.5,71.5C 214.15,71.1961 214.817,70.8627 215.5,70.5C 216.491,74.4454 216.824,78.4454 216.5,82.5 Z"/></g>
<g><path style="opacity:1" fill="#d85a63" d="M 211.5,76.5 C 211.573,78.0269 210.906,79.0269 209.5,79.5C 209.5,78.8333 209.5,78.1667 209.5,77.5C 210.167,77.1667 210.833,76.8333 211.5,76.5 Z"/></g>
<g><path style="opacity:1" fill="#8c8dc7" d="M 133.5,79.5 C 136.518,79.3354 139.518,79.502 142.5,80C 143.056,80.3826 143.389,80.8826 143.5,81.5C 143.5,81.8333 143.5,82.1667 143.5,82.5C 142.833,82.5 142.167,82.5 141.5,82.5C 138.819,80.2376 135.819,79.9043 132.5,81.5C 132.833,80.8333 133.167,80.1667 133.5,79.5 Z"/></g>
<g><path style="opacity:1" fill="#eeaeb0" d="M 204.5,74.5 C 203.85,74.1961 203.183,73.8627 202.5,73.5C 201.516,76.4281 201.183,79.4281 201.5,82.5C 199.5,82.5 197.5,82.5 195.5,82.5C 194.833,82.5 194.167,82.5 193.5,82.5C 193.5,82.1667 193.5,81.8333 193.5,81.5C 195.792,81.7564 197.959,81.4231 200,80.5C 200.495,77.4686 200.329,74.4686 199.5,71.5C 202.285,70.9162 203.952,71.9162 204.5,74.5 Z"/></g>
<g><path style="opacity:1" fill="#d7868d" d="M 193.5,81.5 C 193.5,81.8333 193.5,82.1667 193.5,82.5C 191.824,83.1834 191.157,84.5168 191.5,86.5C 188.703,86.0334 187.369,84.3667 187.5,81.5C 189.5,81.5 191.5,81.5 193.5,81.5 Z"/></g>
<g><path style="opacity:1" fill="#f5d1cf" d="M 228.5,79.5 C 228.66,81.1992 228.494,82.8659 228,84.5C 227.329,85.2524 226.496,85.5858 225.5,85.5C 226.234,84.2921 226.567,82.9587 226.5,81.5C 224.833,81.5 223.167,81.5 221.5,81.5C 223.438,79.8372 225.772,79.1706 228.5,79.5 Z"/></g>
<g><path style="opacity:1" fill="#d74042" d="M 209.5,79.5 C 207.833,80.8333 206.167,82.1667 204.5,83.5C 200.919,84.2599 197.252,84.7599 193.5,85C 194.756,85.4169 195.423,86.2502 195.5,87.5C 194.167,87.1667 192.833,86.8333 191.5,86.5C 191.157,84.5168 191.824,83.1834 193.5,82.5C 194.167,82.5 194.833,82.5 195.5,82.5C 197.628,83.6291 199.961,83.7958 202.5,83C 203.337,81.9887 203.67,80.8221 203.5,79.5C 205.5,79.5 207.5,79.5 209.5,79.5 Z"/></g>
<g><path style="opacity:1" fill="#df555b" d="M 223.5,85.5 C 221.278,85.5587 220.278,86.7253 220.5,89C 220.278,91.2747 221.278,92.4413 223.5,92.5C 223.5,92.8333 223.5,93.1667 223.5,93.5C 219.029,92.5603 217.696,89.8937 219.5,85.5C 218.398,84.8243 217.398,84.1577 216.5,83.5C 218.861,83.3259 221.194,82.9926 223.5,82.5C 223.5,83.5 223.5,84.5 223.5,85.5 Z"/></g>
<g><path style="opacity:1" fill="#fbe7e6" d="M 210.5,74.5 C 209.89,75.391 209.557,76.391 209.5,77.5C 208.883,77.6107 208.383,77.944 208,78.5C 206.595,77.2695 205.429,75.9361 204.5,74.5C 203.952,71.9162 202.285,70.9162 199.5,71.5C 200.329,74.4686 200.495,77.4686 200,80.5C 197.959,81.4231 195.792,81.7564 193.5,81.5C 191.5,81.5 189.5,81.5 187.5,81.5C 187.369,84.3667 188.703,86.0334 191.5,86.5C 191.5,86.8333 191.5,87.1667 191.5,87.5C 189.139,87.3259 186.806,86.9926 184.5,86.5C 184.5,84.1667 184.5,81.8333 184.5,79.5C 189.167,79.5 193.833,79.5 198.5,79.5C 198.167,76.1667 197.833,72.8333 197.5,69.5C 199.857,69.3367 202.19,69.5034 204.5,70C 204.926,73.5921 206.926,75.0921 210.5,74.5 Z"/></g>
<g><path style="opacity:1" fill="#2f3092" d="M 141.5,82.5 C 142.167,82.5 142.833,82.5 143.5,82.5C 143.5,83.1667 143.5,83.8333 143.5,84.5C 144.707,87.8142 144.707,91.1475 143.5,94.5C 143.5,94.8333 143.5,95.1667 143.5,95.5C 138.739,97.2491 134.406,96.5824 130.5,93.5C 128.5,84.1667 132.167,80.5 141.5,82.5 Z"/></g>
<g><path style="opacity:1" fill="#5c5b9a" d="M 141.5,82.5 C 132.167,80.5 128.5,84.1667 130.5,93.5C 129.235,92.4855 128.569,90.9855 128.5,89C 127.919,85.4287 129.252,82.9287 132.5,81.5C 135.819,79.9043 138.819,80.2376 141.5,82.5 Z"/></g>
<g><path style="opacity:1" fill="#7272ac" d="M 143.5,82.5 C 144.458,82.9528 145.292,83.6195 146,84.5C 146.497,86.8098 146.663,89.1432 146.5,91.5C 146.912,93.9726 145.912,95.3059 143.5,95.5C 143.5,95.1667 143.5,94.8333 143.5,94.5C 144.117,94.3893 144.617,94.056 145,93.5C 145.667,90.8333 145.667,88.1667 145,85.5C 144.617,84.944 144.117,84.6107 143.5,84.5C 143.5,83.8333 143.5,83.1667 143.5,82.5 Z"/></g>
<g><path style="opacity:1" fill="#b3b6da" d="M 143.5,82.5 C 143.5,82.1667 143.5,81.8333 143.5,81.5C 145.017,81.5106 146.184,82.1772 147,83.5C 147.801,86.367 147.634,89.0336 146.5,91.5C 146.663,89.1432 146.497,86.8098 146,84.5C 145.292,83.6195 144.458,82.9528 143.5,82.5 Z"/></g>
<g><path style="opacity:1" fill="#f19e99" d="M 223.5,85.5 C 222.645,86.5307 221.978,87.6974 221.5,89C 222.429,90.0769 223.096,91.2436 223.5,92.5C 221.278,92.4413 220.278,91.2747 220.5,89C 220.278,86.7253 221.278,85.5587 223.5,85.5 Z"/></g>
<g><path style="opacity:1" fill="#fbefec" d="M 228.5,79.5 C 231.826,79.9672 232.159,81.1339 229.5,83C 229.957,83.414 230.291,83.914 230.5,84.5C 228.359,85.8076 226.359,87.3076 224.5,89C 228.202,89.5581 230.202,91.7248 230.5,95.5C 229.833,95.5 229.167,95.5 228.5,95.5C 227.656,93.2407 225.989,92.2407 223.5,92.5C 223.096,91.2436 222.429,90.0769 221.5,89C 221.978,87.6974 222.645,86.5307 223.5,85.5C 224.167,85.5 224.833,85.5 225.5,85.5C 226.496,85.5858 227.329,85.2524 228,84.5C 228.494,82.8659 228.66,81.1992 228.5,79.5 Z"/></g>
<g><path style="opacity:1" fill="#4b4997" d="M 143.5,84.5 C 144.117,84.6107 144.617,84.944 145,85.5C 145.667,88.1667 145.667,90.8333 145,93.5C 144.617,94.056 144.117,94.3893 143.5,94.5C 144.707,91.1475 144.707,87.8142 143.5,84.5 Z"/></g>
<g><path style="opacity:1" fill="#f7bfba" d="M 191.5,87.5 C 191.5,87.1667 191.5,86.8333 191.5,86.5C 192.833,86.8333 194.167,87.1667 195.5,87.5C 195.842,88.3382 196.508,88.6716 197.5,88.5C 197.5,88.8333 197.5,89.1667 197.5,89.5C 197.768,91.099 197.434,92.4324 196.5,93.5C 196.719,92.325 196.386,91.325 195.5,90.5C 193.84,89.8284 192.507,88.8284 191.5,87.5 Z"/></g>
<g><path style="opacity:1" fill="#d11a1f" d="M 216.5,82.5 C 216.5,82.8333 216.5,83.1667 216.5,83.5C 217.398,84.1577 218.398,84.8243 219.5,85.5C 217.696,89.8937 219.029,92.5603 223.5,93.5C 222.448,95.256 220.781,95.9227 218.5,95.5C 217.19,93.8523 215.857,92.1856 214.5,90.5C 214.833,89.8333 215.167,89.1667 215.5,88.5C 213.833,87.5 212.5,86.1667 211.5,84.5C 209.257,83.5258 206.924,83.1924 204.5,83.5C 206.167,82.1667 207.833,80.8333 209.5,79.5C 210.906,79.0269 211.573,78.0269 211.5,76.5C 212.708,75.7659 214.041,75.4326 215.5,75.5C 215.198,78.0593 215.532,80.3926 216.5,82.5 Z"/></g>
<g><path style="opacity:1" fill="#d31619" d="M 204.5,83.5 C 206.924,83.1924 209.257,83.5258 211.5,84.5C 212.5,86.1667 213.833,87.5 215.5,88.5C 215.167,89.1667 214.833,89.8333 214.5,90.5C 215.857,92.1856 217.19,93.8523 218.5,95.5C 214.151,97.6566 209.484,99.3232 204.5,100.5C 204.5,98.8333 204.5,97.1667 204.5,95.5C 202.712,95.7852 201.045,95.4519 199.5,94.5C 201.259,91.495 200.592,89.495 197.5,88.5C 196.508,88.6716 195.842,88.3382 195.5,87.5C 195.423,86.2502 194.756,85.4169 193.5,85C 197.252,84.7599 200.919,84.2599 204.5,83.5 Z"/></g>
<g><path style="opacity:1" fill="#eb9292" d="M 223.5,93.5 C 223.5,93.1667 223.5,92.8333 223.5,92.5C 225.989,92.2407 227.656,93.2407 228.5,95.5C 228.167,95.5 227.833,95.5 227.5,95.5C 226.395,94.3995 225.062,93.7329 223.5,93.5 Z"/></g>
<g><path style="opacity:1" fill="#c2c3e7" d="M 133.5,79.5 C 133.167,80.1667 132.833,80.8333 132.5,81.5C 129.252,82.9287 127.919,85.4287 128.5,89C 128.569,90.9855 129.235,92.4855 130.5,93.5C 130.5,94.1667 130.5,94.8333 130.5,95.5C 129.504,95.5858 128.671,95.2524 128,94.5C 127.333,90.8333 127.333,87.1667 128,83.5C 129.451,81.5359 131.284,80.2026 133.5,79.5 Z"/></g>
<g><path style="opacity:1" fill="#d9686b" d="M 197.5,89.5 C 199.744,91.6798 199.411,93.8465 196.5,96C 198.708,96.1909 200.708,96.6909 202.5,97.5C 199.753,97.8134 197.086,97.48 194.5,96.5C 195.193,95.4822 195.859,94.4822 196.5,93.5C 197.434,92.4324 197.768,91.099 197.5,89.5 Z"/></g>
<g><path style="opacity:1" fill="#cf343c" d="M 197.5,89.5 C 197.5,89.1667 197.5,88.8333 197.5,88.5C 200.592,89.495 201.259,91.495 199.5,94.5C 201.045,95.4519 202.712,95.7852 204.5,95.5C 204.5,97.1667 204.5,98.8333 204.5,100.5C 209.484,99.3232 214.151,97.6566 218.5,95.5C 220.781,95.9227 222.448,95.256 223.5,93.5C 225.062,93.7329 226.395,94.3995 227.5,95.5C 223.833,96.1667 220.167,96.8333 216.5,97.5C 215.691,99.2922 215.191,101.292 215,103.5C 214.292,102.619 213.458,101.953 212.5,101.5C 208.878,100.061 206.544,101.394 205.5,105.5C 204.878,106.627 204.045,107.627 203,108.5C 202.503,106.19 202.337,103.857 202.5,101.5C 202.5,100.167 202.5,98.8333 202.5,97.5C 200.708,96.6909 198.708,96.1909 196.5,96C 199.411,93.8465 199.744,91.6798 197.5,89.5 Z"/></g>
<g><path style="opacity:1" fill="#b6b6db" d="M 109.5,96.5 C 114.363,96.1805 119.03,96.5139 123.5,97.5C 119.298,97.1832 115.298,97.5166 111.5,98.5C 110.167,98.8333 108.833,99.1667 107.5,99.5C 108.167,98.5 108.833,97.5 109.5,96.5 Z"/></g>
<g><path style="opacity:1" fill="#6662a9" d="M 130.5,93.5 C 134.406,96.5824 138.739,97.2491 143.5,95.5C 143.5,96.1667 143.5,96.8333 143.5,97.5C 142.833,97.5 142.167,97.5 141.5,97.5C 137.838,97.9661 134.505,97.2994 131.5,95.5C 131.167,95.5 130.833,95.5 130.5,95.5C 130.5,94.8333 130.5,94.1667 130.5,93.5 Z"/></g>
<g><path style="opacity:1" fill="#d7535a" d="M 227.5,95.5 C 227.833,95.5 228.167,95.5 228.5,95.5C 224.971,97.4228 220.971,98.0894 216.5,97.5C 220.167,96.8333 223.833,96.1667 227.5,95.5 Z"/></g>
<g><path style="opacity:1" fill="#9d9dcb" d="M 131.5,95.5 C 134.505,97.2994 137.838,97.9661 141.5,97.5C 138.696,98.6378 135.696,98.8045 132.5,98C 131.748,97.3292 131.414,96.4959 131.5,95.5 Z"/></g>
<g><path style="opacity:1" fill="#eba3a1" d="M 196.5,93.5 C 195.859,94.4822 195.193,95.4822 194.5,96.5C 197.086,97.48 199.753,97.8134 202.5,97.5C 202.5,98.8333 202.5,100.167 202.5,101.5C 202.167,101.5 201.833,101.5 201.5,101.5C 201.5,100.5 201.5,99.5 201.5,98.5C 198.14,98.6159 194.807,98.9492 191.5,99.5C 191.5,98.1667 191.5,96.8333 191.5,95.5C 193.05,94.5592 194.716,93.8925 196.5,93.5 Z"/></g>
<g><path style="opacity:1" fill="#9192ca" d="M 111.5,98.5 C 115.298,97.5166 119.298,97.1832 123.5,97.5C 125.099,97.2322 126.432,97.5655 127.5,98.5C 127.5,98.8333 127.5,99.1667 127.5,99.5C 126.167,99.5 124.833,99.5 123.5,99.5C 119.702,98.5166 115.702,98.1832 111.5,98.5 Z"/></g>
<g><path style="opacity:1" fill="#dfe0f5" d="M 109.5,96.5 C 108.833,97.5 108.167,98.5 107.5,99.5C 107.167,99.5 106.833,99.5 106.5,99.5C 103.588,100.429 100.921,101.762 98.5,103.5C 101.245,99.9474 104.911,97.614 109.5,96.5 Z"/></g>
<g><path style="opacity:1" fill="#5d5da4" d="M 111.5,98.5 C 109.967,100.245 107.967,101.245 105.5,101.5C 105.833,100.833 106.167,100.167 106.5,99.5C 106.833,99.5 107.167,99.5 107.5,99.5C 108.833,99.1667 110.167,98.8333 111.5,98.5 Z"/></g>
<g><path style="opacity:1" fill="#333490" d="M 111.5,98.5 C 115.702,98.1832 119.702,98.5166 123.5,99.5C 124.926,100.341 126.26,101.341 127.5,102.5C 123.689,104.118 120.189,103.451 117,100.5C 112.82,101.42 108.653,102.42 104.5,103.5C 104.833,102.833 105.167,102.167 105.5,101.5C 107.967,101.245 109.967,100.245 111.5,98.5 Z"/></g>
<g><path style="opacity:1" fill="#a1a2d0" d="M 127.5,99.5 C 131.007,99.9205 134.341,100.92 137.5,102.5C 138.694,103.272 139.694,104.272 140.5,105.5C 135.738,104.284 131.405,102.284 127.5,99.5 Z"/></g>
<g><path style="opacity:1" fill="#dce0f5" d="M 130.5,95.5 C 130.833,95.5 131.167,95.5 131.5,95.5C 131.414,96.4959 131.748,97.3292 132.5,98C 135.696,98.8045 138.696,98.6378 141.5,97.5C 142.167,97.5 142.833,97.5 143.5,97.5C 141.731,99.3974 139.398,100.564 136.5,101C 137.056,101.383 137.389,101.883 137.5,102.5C 134.341,100.92 131.007,99.9205 127.5,99.5C 127.5,99.1667 127.5,98.8333 127.5,98.5C 128.5,98.5 129.5,98.5 130.5,98.5C 130.5,97.5 130.5,96.5 130.5,95.5 Z"/></g>
<g><path style="opacity:1" fill="#a5a6d4" d="M 106.5,99.5 C 106.167,100.167 105.833,100.833 105.5,101.5C 103.589,102.075 101.922,103.075 100.5,104.5C 99.391,104.557 98.391,104.89 97.5,105.5C 97.3284,104.508 97.6618,103.842 98.5,103.5C 100.921,101.762 103.588,100.429 106.5,99.5 Z"/></g>
<g><path style="opacity:1" fill="#faeae8" d="M 191.5,95.5 C 191.5,96.8333 191.5,98.1667 191.5,99.5C 194.807,98.9492 198.14,98.6159 201.5,98.5C 201.5,99.5 201.5,100.5 201.5,101.5C 200.521,104.625 200.187,107.958 200.5,111.5C 203.285,112.084 204.952,111.084 205.5,108.5C 205.833,107.5 206.5,106.833 207.5,106.5C 206.471,109.82 206.305,113.154 207,116.5C 204.667,116.5 202.333,116.5 200,116.5C 198.916,115.335 198.083,114.002 197.5,112.5C 198.585,109.227 198.752,105.894 198,102.5C 195.237,99.712 192.903,100.045 191,103.5C 189.064,101.192 188.231,98.5255 188.5,95.5C 189.5,95.5 190.5,95.5 191.5,95.5 Z"/></g>
<g><path style="opacity:1" fill="#c9cae2" d="M 164.5,108.5 C 164.5,108.167 164.5,107.833 164.5,107.5C 165.965,106.594 166.965,105.261 167.5,103.5C 165.282,102.943 162.949,102.943 160.5,103.5C 163.171,101.882 166.171,101.215 169.5,101.5C 169.392,103.783 168.559,105.783 167,107.5C 166.329,108.252 165.496,108.586 164.5,108.5 Z"/></g>
<g><path style="opacity:1" fill="#d9d9f2" d="M 137.5,102.5 C 140.216,102.386 142.216,103.386 143.5,105.5C 142.5,105.5 141.5,105.5 140.5,105.5C 139.694,104.272 138.694,103.272 137.5,102.5 Z"/></g>
<g><path style="opacity:1" fill="#9b9cc3" d="M 164.5,107.5 C 164.414,106.504 164.748,105.671 165.5,105C 163.402,104.322 161.402,104.489 159.5,105.5C 159.5,104.833 159.5,104.167 159.5,103.5C 159.833,103.5 160.167,103.5 160.5,103.5C 162.949,102.943 165.282,102.943 167.5,103.5C 166.965,105.261 165.965,106.594 164.5,107.5 Z"/></g>
<g><path style="opacity:1" fill="#df6c68" d="M 212.5,101.5 C 210.067,101.273 208.401,102.273 207.5,104.5C 206.833,104.833 206.167,105.167 205.5,105.5C 206.544,101.394 208.878,100.061 212.5,101.5 Z"/></g>
<g><path style="opacity:1" fill="#f9c6c5" d="M 212.5,101.5 C 212.5,102.167 212.5,102.833 212.5,103.5C 210.486,103.392 208.82,104.058 207.5,105.5C 207.5,105.167 207.5,104.833 207.5,104.5C 208.401,102.273 210.067,101.273 212.5,101.5 Z"/></g>
<g><path style="opacity:1" fill="#f8d5d2" d="M 230.5,95.5 C 232.71,96.4551 233.043,97.9551 231.5,100C 227.152,100.415 222.819,100.249 218.5,99.5C 219.207,102.786 219.54,106.119 219.5,109.5C 218.209,109.737 217.209,109.404 216.5,108.5C 217.649,108.209 218.316,107.376 218.5,106C 217.841,103.538 217.507,101.038 217.5,98.5C 221.833,98.5 226.167,98.5 230.5,98.5C 230.5,97.5 230.5,96.5 230.5,95.5 Z"/></g>
<g><path style="opacity:1" fill="#363993" d="M 117.5,106.5 C 113.434,106.307 109.434,106.64 105.5,107.5C 103.801,107.66 102.134,107.494 100.5,107C 101.094,106.536 101.761,106.369 102.5,106.5C 105.592,105.664 108.759,104.997 112,104.5C 114.295,104.547 116.129,105.213 117.5,106.5 Z"/></g>
<g><path style="opacity:1" fill="#e8898f" d="M 228.5,95.5 C 229.167,95.5 229.833,95.5 230.5,95.5C 230.5,96.5 230.5,97.5 230.5,98.5C 226.167,98.5 221.833,98.5 217.5,98.5C 217.507,101.038 217.841,103.538 218.5,106C 218.316,107.376 217.649,108.209 216.5,108.5C 215.92,106.251 214.587,104.585 212.5,103.5C 212.5,102.833 212.5,102.167 212.5,101.5C 213.458,101.953 214.292,102.619 215,103.5C 215.191,101.292 215.691,99.2922 216.5,97.5C 220.971,98.0894 224.971,97.4228 228.5,95.5 Z"/></g>
<g><path style="opacity:1" fill="#2d2f93" d="M 127.5,102.5 C 131.519,103.699 135.185,105.533 138.5,108C 143.812,108.19 148.478,109.69 152.5,112.5C 147.489,112.334 142.489,112.501 137.5,113C 135.791,118.404 137.791,120.904 143.5,120.5C 150.612,122.094 157.612,124.428 164.5,127.5C 165.167,127.5 165.833,127.5 166.5,127.5C 164.721,129.344 162.388,130.01 159.5,129.5C 153.622,128.636 147.622,127.636 141.5,126.5C 137.83,129.681 133.497,131.514 128.5,132C 127.62,133.356 127.286,134.856 127.5,136.5C 126.5,136.5 125.5,136.5 124.5,136.5C 124.33,135.178 124.663,134.011 125.5,133C 124.809,131.933 124.309,130.766 124,129.5C 121.448,132.194 120.281,131.527 120.5,127.5C 120.232,125.901 120.566,124.568 121.5,123.5C 122.117,123.389 122.617,123.056 123,122.5C 123.667,117.5 123.667,112.5 123,107.5C 121.301,106.594 119.467,106.261 117.5,106.5C 116.129,105.213 114.295,104.547 112,104.5C 108.759,104.997 105.592,105.664 102.5,106.5C 102.427,104.973 103.094,103.973 104.5,103.5C 108.653,102.42 112.82,101.42 117,100.5C 120.189,103.451 123.689,104.118 127.5,102.5 Z"/></g>
<g><path style="opacity:1" fill="#d1d2ed" d="M 159.5,103.5 C 159.5,104.167 159.5,104.833 159.5,105.5C 158.432,106.434 157.099,106.768 155.5,106.5C 151.958,106.813 148.625,106.479 145.5,105.5C 150.399,105.904 155.066,105.237 159.5,103.5 Z"/></g>
<g><path style="opacity:1" fill="#efbebc" d="M 212.5,103.5 C 214.587,104.585 215.92,106.251 216.5,108.5C 214.413,107.415 213.08,105.749 212.5,103.5 Z"/></g>
<g><path style="opacity:1" fill="#7376ad" d="M 117.5,106.5 C 118.167,107.5 118.833,108.5 119.5,109.5C 118.833,109.5 118.167,109.5 117.5,109.5C 117.5,108.833 117.167,108.5 116.5,108.5C 112.994,107.502 109.328,107.502 105.5,108.5C 105.5,108.167 105.5,107.833 105.5,107.5C 109.434,106.64 113.434,106.307 117.5,106.5 Z"/></g>
<g><path style="opacity:1" fill="#a0a3cd" d="M 140.5,105.5 C 141.5,105.5 142.5,105.5 143.5,105.5C 144.167,105.5 144.833,105.5 145.5,105.5C 148.625,106.479 151.958,106.813 155.5,106.5C 153.052,107.473 150.385,107.806 147.5,107.5C 144.848,107.59 142.515,106.924 140.5,105.5 Z"/></g>
<g><path style="opacity:1" fill="#7675a5" d="M 100.5,104.5 C 98.8564,106.481 97.1897,108.481 95.5,110.5C 95.9569,111.298 96.6236,111.631 97.5,111.5C 97.1583,112.338 96.4916,112.672 95.5,112.5C 94.6236,112.631 93.9569,112.298 93.5,111.5C 94.4671,109.21 95.8004,107.21 97.5,105.5C 98.391,104.89 99.391,104.557 100.5,104.5 Z"/></g>
<g><path style="opacity:1" fill="#494793" d="M 105.5,101.5 C 105.167,102.167 104.833,102.833 104.5,103.5C 103.094,103.973 102.427,104.973 102.5,106.5C 101.761,106.369 101.094,106.536 100.5,107C 102.134,107.494 103.801,107.66 105.5,107.5C 105.5,107.833 105.5,108.167 105.5,108.5C 103.821,108.285 102.821,108.952 102.5,110.5C 100.585,110.216 98.9187,110.549 97.5,111.5C 96.6236,111.631 95.9569,111.298 95.5,110.5C 97.1897,108.481 98.8564,106.481 100.5,104.5C 101.922,103.075 103.589,102.075 105.5,101.5 Z"/></g>
<g><path style="opacity:1" fill="#3f418d" d="M 117.5,106.5 C 119.467,106.261 121.301,106.594 123,107.5C 123.667,112.5 123.667,117.5 123,122.5C 122.617,123.056 122.117,123.389 121.5,123.5C 122.54,119.22 122.706,114.887 122,110.5C 121.617,109.944 121.117,109.611 120.5,109.5C 120.167,109.5 119.833,109.5 119.5,109.5C 118.833,108.5 118.167,107.5 117.5,106.5 Z"/></g>
<g><path style="opacity:1" fill="#464694" d="M 123.5,99.5 C 124.833,99.5 126.167,99.5 127.5,99.5C 131.405,102.284 135.738,104.284 140.5,105.5C 142.515,106.924 144.848,107.59 147.5,107.5C 151.5,108.167 155.5,108.833 159.5,109.5C 159.5,110.167 159.5,110.833 159.5,111.5C 157.194,111.993 154.861,112.326 152.5,112.5C 148.478,109.69 143.812,108.19 138.5,108C 135.185,105.533 131.519,103.699 127.5,102.5C 126.26,101.341 124.926,100.341 123.5,99.5 Z"/></g>
<g><path style="opacity:1" fill="#5f5f99" d="M 164.5,107.5 C 162.833,108.167 161.167,108.833 159.5,109.5C 155.5,108.833 151.5,108.167 147.5,107.5C 150.385,107.806 153.052,107.473 155.5,106.5C 157.099,106.768 158.432,106.434 159.5,105.5C 161.402,104.489 163.402,104.322 165.5,105C 164.748,105.671 164.414,106.504 164.5,107.5 Z"/></g>
<g><path style="opacity:1" fill="#b1b2d5" d="M 116.5,108.5 C 112.295,108.717 108.295,109.383 104.5,110.5C 103.833,110.5 103.167,110.5 102.5,110.5C 102.821,108.952 103.821,108.285 105.5,108.5C 109.328,107.502 112.994,107.502 116.5,108.5 Z"/></g>
<g><path style="opacity:1" fill="#9b9ec8" d="M 164.5,107.5 C 164.5,107.833 164.5,108.167 164.5,108.5C 163.078,109.925 161.411,110.925 159.5,111.5C 159.5,110.833 159.5,110.167 159.5,109.5C 161.167,108.833 162.833,108.167 164.5,107.5 Z"/></g>
<g><path style="opacity:1" fill="#d89392" d="M 201.5,101.5 C 201.5,104.167 201.5,106.833 201.5,109.5C 202.959,109.567 204.292,109.234 205.5,108.5C 204.952,111.084 203.285,112.084 200.5,111.5C 200.187,107.958 200.521,104.625 201.5,101.5 Z"/></g>
<g><path style="opacity:1" fill="#dd7e7f" d="M 201.5,101.5 C 201.833,101.5 202.167,101.5 202.5,101.5C 202.337,103.857 202.503,106.19 203,108.5C 204.045,107.627 204.878,106.627 205.5,105.5C 206.167,105.167 206.833,104.833 207.5,104.5C 207.5,104.833 207.5,105.167 207.5,105.5C 207.5,105.833 207.5,106.167 207.5,106.5C 206.5,106.833 205.833,107.5 205.5,108.5C 204.292,109.234 202.959,109.567 201.5,109.5C 201.5,106.833 201.5,104.167 201.5,101.5 Z"/></g>
<g><path style="opacity:1" fill="#aba7c5" d="M 97.5,105.5 C 95.8004,107.21 94.4671,109.21 93.5,111.5C 93.9569,112.298 94.6236,112.631 95.5,112.5C 93.9077,114.688 92.5743,114.688 91.5,112.5C 92.1869,110.823 92.8535,109.156 93.5,107.5C 94.6049,106.4 95.9382,105.733 97.5,105.5 Z"/></g>
<g><path style="opacity:1" fill="#e5e6f5" d="M 117.5,110.5 C 118.117,110.611 118.617,110.944 119,111.5C 119.498,114.817 119.665,118.15 119.5,121.5C 119.167,123.5 118.833,125.5 118.5,127.5C 117.264,129.649 116.264,131.982 115.5,134.5C 115.5,134.833 115.5,135.167 115.5,135.5C 114.094,135.973 113.427,136.973 113.5,138.5C 112.094,138.973 111.427,139.973 111.5,141.5C 111.5,142.167 111.5,142.833 111.5,143.5C 110.833,143.5 110.167,143.5 109.5,143.5C 109.34,141.801 109.506,140.134 110,138.5C 112.403,136.695 114.07,134.362 115,131.5C 115.26,127.576 116.26,123.909 118,120.5C 118.659,117.112 118.492,113.779 117.5,110.5 Z"/></g>
<g><path style="opacity:1" fill="#454596" d="M 152.5,112.5 C 152.389,113.117 152.056,113.617 151.5,114C 147.179,114.499 142.846,114.666 138.5,114.5C 138.5,115.833 138.5,117.167 138.5,118.5C 140.553,118.402 142.22,119.069 143.5,120.5C 137.791,120.904 135.791,118.404 137.5,113C 142.489,112.501 147.489,112.334 152.5,112.5 Z"/></g>
<g><path style="opacity:1" fill="#cbccee" d="M 117.5,110.5 C 117.5,110.167 117.5,109.833 117.5,109.5C 118.167,109.5 118.833,109.5 119.5,109.5C 119.833,109.5 120.167,109.5 120.5,109.5C 122.126,113.794 121.792,117.794 119.5,121.5C 119.665,118.15 119.498,114.817 119,111.5C 118.617,110.944 118.117,110.611 117.5,110.5 Z"/></g>
<g><path style="opacity:1" fill="#7f80b7" d="M 159.5,111.5 C 159.5,111.833 159.5,112.167 159.5,112.5C 156.833,113.5 154.167,114.5 151.5,115.5C 147.445,115.176 143.445,115.509 139.5,116.5C 139.957,117.298 140.624,117.631 141.5,117.5C 142.167,117.5 142.833,117.5 143.5,117.5C 145.515,118.924 147.848,119.59 150.5,119.5C 151.167,119.5 151.5,119.833 151.5,120.5C 148.833,120.5 146.167,120.5 143.5,120.5C 142.22,119.069 140.553,118.402 138.5,118.5C 138.5,117.167 138.5,115.833 138.5,114.5C 142.846,114.666 147.179,114.499 151.5,114C 152.056,113.617 152.389,113.117 152.5,112.5C 154.861,112.326 157.194,111.993 159.5,111.5 Z"/></g>
<g><path style="opacity:1" fill="#e1def1" d="M 93.5,107.5 C 92.8535,109.156 92.1869,110.823 91.5,112.5C 92.5743,114.688 93.9077,114.688 95.5,112.5C 96.4916,112.672 97.1583,112.338 97.5,111.5C 98.9187,110.549 100.585,110.216 102.5,110.5C 103.167,110.5 103.833,110.5 104.5,110.5C 100.961,112.205 97.7943,114.538 95,117.5C 93,116.833 91,116.167 89,115.5C 88.6667,115.833 88.3333,116.167 88,116.5C 87.3333,115.5 87.3333,114.5 88,113.5C 90.3927,111.381 91.7261,108.715 92,105.5C 92.2784,106.416 92.7784,107.082 93.5,107.5 Z"/></g>
<g><path style="opacity:1" fill="#c3c4ed" d="M 151.5,115.5 C 148.167,116.167 144.833,116.833 141.5,117.5C 140.624,117.631 139.957,117.298 139.5,116.5C 143.445,115.509 147.445,115.176 151.5,115.5 Z"/></g>
<g><path style="opacity:1" fill="#e0e0f6" d="M 159.5,112.5 C 157.837,114.533 155.837,116.366 153.5,118C 155.889,118.739 157.889,119.905 159.5,121.5C 156.833,121.167 154.167,120.833 151.5,120.5C 151.5,119.833 151.167,119.5 150.5,119.5C 148.562,117.837 146.228,117.171 143.5,117.5C 142.833,117.5 142.167,117.5 141.5,117.5C 144.833,116.833 148.167,116.167 151.5,115.5C 154.167,114.5 156.833,113.5 159.5,112.5 Z"/></g>
<g><path style="opacity:1" fill="#7f80b9" d="M 120.5,109.5 C 121.117,109.611 121.617,109.944 122,110.5C 122.706,114.887 122.54,119.22 121.5,123.5C 120.566,124.568 120.232,125.901 120.5,127.5C 119.833,127.5 119.167,127.5 118.5,127.5C 118.833,125.5 119.167,123.5 119.5,121.5C 121.792,117.794 122.126,113.794 120.5,109.5 Z"/></g>
<g><path style="opacity:1" fill="#b8bae2" d="M 143.5,117.5 C 146.228,117.171 148.562,117.837 150.5,119.5C 147.848,119.59 145.515,118.924 143.5,117.5 Z"/></g>
<g><path style="opacity:1" fill="#8286c5" d="M 151.5,120.5 C 154.167,120.833 156.833,121.167 159.5,121.5C 159.5,121.833 159.5,122.167 159.5,122.5C 156.447,122.889 153.78,122.223 151.5,120.5 Z"/></g>
<g><path style="opacity:1" fill="#3b3f93" d="M 143.5,120.5 C 146.167,120.5 148.833,120.5 151.5,120.5C 153.78,122.223 156.447,122.889 159.5,122.5C 161.026,124.333 162.692,126 164.5,127.5C 157.612,124.428 150.612,122.094 143.5,120.5 Z"/></g>
<g><path style="opacity:1" fill="#dee0f3" d="M 159.5,122.5 C 159.5,122.167 159.5,121.833 159.5,121.5C 164.662,121.414 168.662,123.414 171.5,127.5C 170.833,127.5 170.167,127.5 169.5,127.5C 168.833,127.5 168.167,127.5 167.5,127.5C 167.489,125.983 166.823,124.816 165.5,124C 163.482,123.495 161.482,122.995 159.5,122.5 Z"/></g>
<g><path style="opacity:1" fill="#7e80b4" d="M 159.5,122.5 C 161.482,122.995 163.482,123.495 165.5,124C 166.823,124.816 167.489,125.983 167.5,127.5C 167.167,127.5 166.833,127.5 166.5,127.5C 165.833,127.5 165.167,127.5 164.5,127.5C 162.692,126 161.026,124.333 159.5,122.5 Z"/></g>
<g><path style="opacity:1" fill="#9699c4" d="M 169.5,127.5 C 170.167,127.5 170.833,127.5 171.5,127.5C 172.167,128.5 172.833,129.5 173.5,130.5C 171.596,130.262 170.262,129.262 169.5,127.5 Z"/></g>
<g><path style="opacity:1" fill="#8e90c3" d="M 159.5,129.5 C 159.5,129.833 159.5,130.167 159.5,130.5C 152.132,130.317 144.799,130.65 137.5,131.5C 138.263,130.732 139.263,130.232 140.5,130C 146.825,129.5 153.158,129.334 159.5,129.5 Z"/></g>
<g><path style="opacity:1" fill="#464590" d="M 166.5,127.5 C 166.833,127.5 167.167,127.5 167.5,127.5C 168.167,127.5 168.833,127.5 169.5,127.5C 170.262,129.262 171.596,130.262 173.5,130.5C 173.833,131.5 174.5,132.167 175.5,132.5C 175.5,132.833 175.5,133.167 175.5,133.5C 174.081,134.451 172.415,134.784 170.5,134.5C 168.491,132.935 166.157,131.935 163.5,131.5C 161.901,131.768 160.568,131.434 159.5,130.5C 159.5,130.167 159.5,129.833 159.5,129.5C 162.388,130.01 164.721,129.344 166.5,127.5 Z"/></g>
<g><path style="opacity:1" fill="#d5d8ef" d="M 238.5,127.5 C 237.833,127.5 237.167,127.5 236.5,127.5C 236.144,125.81 235.144,124.81 233.5,124.5C 232.713,122.896 231.38,122.229 229.5,122.5C 229.666,128.176 229.499,133.843 229,139.5C 228.617,140.056 228.117,140.389 227.5,140.5C 228.418,134.225 228.751,127.892 228.5,121.5C 234.243,119.374 237.576,121.374 238.5,127.5 Z"/></g>
<g><path style="opacity:1" fill="#9194bf" d="M 233.5,124.5 C 232.5,124.5 231.5,124.5 230.5,124.5C 230.5,128.833 230.5,133.167 230.5,137.5C 230.5,139.5 230.5,141.5 230.5,143.5C 228.97,145.827 227.303,148.16 225.5,150.5C 226.455,148.254 227.122,145.921 227.5,143.5C 227.5,142.5 227.5,141.5 227.5,140.5C 228.117,140.389 228.617,140.056 229,139.5C 229.499,133.843 229.666,128.176 229.5,122.5C 231.38,122.229 232.713,122.896 233.5,124.5 Z"/></g>
<g><path style="opacity:1" fill="#5f62a0" d="M 233.5,124.5 C 235.144,124.81 236.144,125.81 236.5,127.5C 234.989,126.498 233.322,125.831 231.5,125.5C 231.817,129.702 231.483,133.702 230.5,137.5C 230.5,133.167 230.5,128.833 230.5,124.5C 231.5,124.5 232.5,124.5 233.5,124.5 Z"/></g>
<g><path style="opacity:1" fill="#d2d3ed" d="M 239.5,129.5 C 242.179,129.525 243.512,130.858 243.5,133.5C 241.833,132.5 240.5,131.167 239.5,129.5 Z"/></g>
<g><path style="opacity:1" fill="#504f9a" d="M 159.5,129.5 C 153.158,129.334 146.825,129.5 140.5,130C 139.263,130.232 138.263,130.732 137.5,131.5C 136.167,131.833 134.833,132.167 133.5,132.5C 131.246,133.415 129.246,134.748 127.5,136.5C 127.286,134.856 127.62,133.356 128.5,132C 133.497,131.514 137.83,129.681 141.5,126.5C 147.622,127.636 153.622,128.636 159.5,129.5 Z"/></g>
<g><path style="opacity:1" fill="#d2d5ec" d="M 159.5,130.5 C 160.568,131.434 161.901,131.768 163.5,131.5C 164.59,132.857 165.924,133.857 167.5,134.5C 155.839,131.862 144.172,131.862 132.5,134.5C 132.833,133.833 133.167,133.167 133.5,132.5C 134.833,132.167 136.167,131.833 137.5,131.5C 144.799,130.65 152.132,130.317 159.5,130.5 Z"/></g>
<g><path style="opacity:1" fill="#c5c7e8" d="M 171.5,127.5 C 173.404,127.738 174.738,128.738 175.5,130.5C 176.167,131.167 176.833,131.833 177.5,132.5C 176.833,132.5 176.167,132.5 175.5,132.5C 174.5,132.167 173.833,131.5 173.5,130.5C 172.833,129.5 172.167,128.5 171.5,127.5 Z"/></g>
<g><path style="opacity:1" fill="#8e8ec2" d="M 163.5,131.5 C 166.157,131.935 168.491,132.935 170.5,134.5C 169.833,134.5 169.167,134.5 168.5,134.5C 168.167,134.5 167.833,134.5 167.5,134.5C 165.924,133.857 164.59,132.857 163.5,131.5 Z"/></g>
<g><path style="opacity:1" fill="#7374b0" d="M 236.5,127.5 C 237.167,127.5 237.833,127.5 238.5,127.5C 239.338,127.842 239.672,128.508 239.5,129.5C 240.5,131.167 241.833,132.5 243.5,133.5C 243.328,134.492 243.662,135.158 244.5,135.5C 244.5,136.167 244.5,136.833 244.5,137.5C 242.604,134.937 240.27,132.603 237.5,130.5C 236.873,129.583 236.539,128.583 236.5,127.5 Z"/></g>
<g><path style="opacity:1" fill="#908fc6" d="M 118.5,127.5 C 118.483,129.565 118.15,131.565 117.5,133.5C 116.833,133.833 116.167,134.167 115.5,134.5C 116.264,131.982 117.264,129.649 118.5,127.5 Z"/></g>
<g><path style="opacity:1" fill="#323290" d="M 118.5,127.5 C 119.167,127.5 119.833,127.5 120.5,127.5C 120.281,131.527 121.448,132.194 124,129.5C 124.309,130.766 124.809,131.933 125.5,133C 124.663,134.011 124.33,135.178 124.5,136.5C 125.5,136.5 126.5,136.5 127.5,136.5C 125.445,138.555 123.779,140.888 122.5,143.5C 122.167,143.5 121.833,143.5 121.5,143.5C 117.806,146.527 114.473,149.86 111.5,153.5C 110.5,153.5 109.5,153.5 108.5,153.5C 108.977,150.345 109.977,147.345 111.5,144.5C 111.5,144.167 111.5,143.833 111.5,143.5C 115.143,141.334 117.143,138.001 117.5,133.5C 118.15,131.565 118.483,129.565 118.5,127.5 Z"/></g>
<g><path style="opacity:1" fill="#64659c" d="M 175.5,133.5 C 178.085,134.465 178.585,135.799 177,137.5C 174.683,136.588 172.516,135.588 170.5,134.5C 172.415,134.784 174.081,134.451 175.5,133.5 Z"/></g>
<g><path style="opacity:1" fill="#8b8abe" d="M 115.5,135.5 C 115.573,137.027 114.906,138.027 113.5,138.5C 113.427,136.973 114.094,135.973 115.5,135.5 Z"/></g>
<g><path style="opacity:1" fill="#a1a2c4" d="M 175.5,133.5 C 175.5,133.167 175.5,132.833 175.5,132.5C 176.167,132.5 176.833,132.5 177.5,132.5C 179.705,134.363 181.039,136.697 181.5,139.5C 177.281,139.112 173.281,138.112 169.5,136.5C 169.167,135.833 168.833,135.167 168.5,134.5C 169.167,134.5 169.833,134.5 170.5,134.5C 172.516,135.588 174.683,136.588 177,137.5C 178.585,135.799 178.085,134.465 175.5,133.5 Z"/></g>
<g><path style="opacity:1" fill="#eaeaf3" d="M 175.5,130.5 C 177.199,130.34 178.866,130.506 180.5,131C 179.391,132.813 180.058,133.646 182.5,133.5C 182.906,136.589 184.24,139.255 186.5,141.5C 186.137,142.183 185.804,142.85 185.5,143.5C 184.167,143.5 182.833,143.5 181.5,143.5C 178.917,140.574 175.584,139.074 171.5,139C 170.619,138.292 169.953,137.458 169.5,136.5C 173.281,138.112 177.281,139.112 181.5,139.5C 181.039,136.697 179.705,134.363 177.5,132.5C 176.833,131.833 176.167,131.167 175.5,130.5 Z"/></g>
<g><path style="opacity:1" fill="#9298cc" d="M 113.5,138.5 C 113.573,140.027 112.906,141.027 111.5,141.5C 111.427,139.973 112.094,138.973 113.5,138.5 Z"/></g>
<g><path style="opacity:1" fill="#9593c9" d="M 133.5,132.5 C 133.167,133.167 132.833,133.833 132.5,134.5C 131.167,135.167 130.167,136.167 129.5,137.5C 127.139,139.194 125.139,141.194 123.5,143.5C 123.167,143.5 122.833,143.5 122.5,143.5C 123.779,140.888 125.445,138.555 127.5,136.5C 129.246,134.748 131.246,133.415 133.5,132.5 Z"/></g>
<g><path style="opacity:1" fill="#494b9b" d="M 117.5,133.5 C 117.143,138.001 115.143,141.334 111.5,143.5C 111.5,142.833 111.5,142.167 111.5,141.5C 112.906,141.027 113.573,140.027 113.5,138.5C 114.906,138.027 115.573,137.027 115.5,135.5C 115.5,135.167 115.5,134.833 115.5,134.5C 116.167,134.167 116.833,133.833 117.5,133.5 Z"/></g>
<g><path style="opacity:1" fill="#c2c6ea" d="M 181.5,143.5 C 182.833,143.5 184.167,143.5 185.5,143.5C 189.833,143.5 194.167,143.5 198.5,143.5C 198.5,144.5 198.5,145.5 198.5,146.5C 197.833,146.167 197.167,145.833 196.5,145.5C 189.833,145.5 183.167,145.5 176.5,145.5C 176.5,145.167 176.5,144.833 176.5,144.5C 177.919,143.549 179.585,143.216 181.5,143.5 Z"/></g>
<g><path style="opacity:1" fill="#2f3190" d="M 236.5,127.5 C 236.539,128.583 236.873,129.583 237.5,130.5C 240.27,132.603 242.604,134.937 244.5,137.5C 244.5,138.833 244.5,140.167 244.5,141.5C 244.666,145.514 244.499,149.514 244,153.5C 241.973,156.338 240.473,159.338 239.5,162.5C 238.799,158.181 239.966,154.514 243,151.5C 243.667,148.833 243.667,146.167 243,143.5C 242.667,144.167 242.333,144.833 242,145.5C 241.667,142.167 241.333,138.833 241,135.5C 239.887,134.289 238.72,134.289 237.5,135.5C 236.571,134.311 236.238,132.978 236.5,131.5C 235.5,131.5 234.5,131.5 233.5,131.5C 233.938,140.866 234.438,150.199 235,159.5C 233.152,162.041 230.652,163.041 227.5,162.5C 227.5,161.5 227.5,160.5 227.5,159.5C 228.5,159.5 229.5,159.5 230.5,159.5C 230.5,157.833 230.5,156.167 230.5,154.5C 227.697,154.961 225.363,156.295 223.5,158.5C 225.811,155.337 227.978,152.003 230,148.5C 230.494,146.866 230.66,145.199 230.5,143.5C 230.5,141.5 230.5,139.5 230.5,137.5C 231.483,133.702 231.817,129.702 231.5,125.5C 233.322,125.831 234.989,126.498 236.5,127.5 Z"/></g>
<g><path style="opacity:1" fill="#7d7db4" d="M 109.5,143.5 C 110.167,143.5 110.833,143.5 111.5,143.5C 111.5,143.833 111.5,144.167 111.5,144.5C 108.989,147.397 106.655,150.397 104.5,153.5C 105.167,151.833 105.833,150.167 106.5,148.5C 107.752,146.999 108.752,145.332 109.5,143.5 Z"/></g>
<g><path style="opacity:1" fill="#eaecfa" d="M 129.5,137.5 C 126.279,145.387 120.946,151.387 113.5,155.5C 117.233,151.773 120.566,147.773 123.5,143.5C 125.139,141.194 127.139,139.194 129.5,137.5 Z"/></g>
<g><path style="opacity:1" fill="#7574b2" d="M 244.5,137.5 C 245.738,139.214 246.405,141.214 246.5,143.5C 246.806,146.385 246.473,149.052 245.5,151.5C 245.813,147.958 245.479,144.625 244.5,141.5C 244.5,140.167 244.5,138.833 244.5,137.5 Z"/></g>
<g><path style="opacity:1" fill="#a7a5d6" d="M 246.5,143.5 C 247.16,144.964 247.493,146.631 247.5,148.5C 247.684,151.205 247.017,153.538 245.5,155.5C 245.5,154.167 245.5,152.833 245.5,151.5C 246.473,149.052 246.806,146.385 246.5,143.5 Z"/></g>
<g><path style="opacity:1" fill="#dedff5" d="M 244.5,135.5 C 245.761,137.29 247.261,138.957 249,140.5C 250.927,149.211 249.094,156.878 243.5,163.5C 243.5,162.167 243.5,160.833 243.5,159.5C 244.674,158.486 245.34,157.153 245.5,155.5C 247.017,153.538 247.684,151.205 247.5,148.5C 247.493,146.631 247.16,144.964 246.5,143.5C 246.405,141.214 245.738,139.214 244.5,137.5C 244.5,136.833 244.5,136.167 244.5,135.5 Z"/></g>
<g><path style="opacity:1" fill="#494894" d="M 230.5,143.5 C 230.66,145.199 230.494,146.866 230,148.5C 227.978,152.003 225.811,155.337 223.5,158.5C 222.609,159.11 221.609,159.443 220.5,159.5C 220.75,157.326 221.75,155.659 223.5,154.5C 224.906,154.027 225.573,153.027 225.5,151.5C 225.5,151.167 225.5,150.833 225.5,150.5C 227.303,148.16 228.97,145.827 230.5,143.5 Z"/></g>
<g><path style="opacity:1" fill="#c1c3e6" d="M 121.5,143.5 C 121.833,143.5 122.167,143.5 122.5,143.5C 122.833,143.5 123.167,143.5 123.5,143.5C 120.566,147.773 117.233,151.773 113.5,155.5C 112.564,156.974 111.23,157.974 109.5,158.5C 110.211,156.97 111.211,155.637 112.5,154.5C 115.902,151.105 118.902,147.438 121.5,143.5 Z"/></g>
<g><path style="opacity:1" fill="#b1b2d7" d="M 106.5,148.5 C 105.833,150.167 105.167,151.833 104.5,153.5C 103.833,153.833 103.167,154.167 102.5,154.5C 102.845,151.802 104.178,149.802 106.5,148.5 Z"/></g>
<g><path style="opacity:1" fill="#e2e3f6" d="M 227.5,143.5 C 227.122,145.921 226.455,148.254 225.5,150.5C 225.5,150.833 225.5,151.167 225.5,151.5C 224.833,151.833 224.167,152.167 223.5,152.5C 222.833,152.833 222.167,153.167 221.5,153.5C 222.669,149.665 224.669,146.332 227.5,143.5 Z"/></g>
<g><path style="opacity:1" fill="#6c6bad" d="M 121.5,143.5 C 118.902,147.438 115.902,151.105 112.5,154.5C 112.167,154.5 111.833,154.5 111.5,154.5C 111.5,154.167 111.5,153.833 111.5,153.5C 114.473,149.86 117.806,146.527 121.5,143.5 Z"/></g>
<g><path style="opacity:1" fill="#7c7bbf" d="M 225.5,151.5 C 225.573,153.027 224.906,154.027 223.5,154.5C 223.5,153.833 223.5,153.167 223.5,152.5C 224.167,152.167 224.833,151.833 225.5,151.5 Z"/></g>
<g><path style="opacity:1" fill="#454392" d="M 111.5,144.5 C 109.977,147.345 108.977,150.345 108.5,153.5C 109.5,153.5 110.5,153.5 111.5,153.5C 111.5,153.833 111.5,154.167 111.5,154.5C 108.206,157.156 104.873,159.822 101.5,162.5C 100.167,162.5 99.5,161.833 99.5,160.5C 100.529,158.483 101.529,156.483 102.5,154.5C 103.167,154.167 103.833,153.833 104.5,153.5C 106.655,150.397 108.989,147.397 111.5,144.5 Z"/></g>
<g><path style="opacity:1" fill="#dedee7" d="M 176.5,144.5 C 176.5,144.833 176.5,145.167 176.5,145.5C 175.505,157.655 175.171,169.989 175.5,182.5C 174.34,169.673 174.173,156.673 175,143.5C 175.383,144.056 175.883,144.389 176.5,144.5 Z"/></g>
<g><path style="opacity:1" fill="#a1a2d2" d="M 176.5,145.5 C 176.5,157.167 176.5,168.833 176.5,180.5C 179.004,179.361 181.67,178.694 184.5,178.5C 183.833,179.5 183.167,180.5 182.5,181.5C 180.139,181.674 177.806,182.007 175.5,182.5C 175.171,169.989 175.505,157.655 176.5,145.5 Z"/></g>
<g><path style="opacity:1" fill="#b6b6dd" d="M 223.5,152.5 C 223.5,153.167 223.5,153.833 223.5,154.5C 221.75,155.659 220.75,157.326 220.5,159.5C 220.167,159.5 219.833,159.5 219.5,159.5C 219.604,157.297 220.27,155.297 221.5,153.5C 222.167,153.167 222.833,152.833 223.5,152.5 Z"/></g>
<g><path style="opacity:1" fill="#454594" d="M 244.5,141.5 C 245.479,144.625 245.813,147.958 245.5,151.5C 245.5,152.833 245.5,154.167 245.5,155.5C 245.34,157.153 244.674,158.486 243.5,159.5C 241.986,161.364 240.653,163.364 239.5,165.5C 239.5,164.5 239.5,163.5 239.5,162.5C 240.473,159.338 241.973,156.338 244,153.5C 244.499,149.514 244.666,145.514 244.5,141.5 Z"/></g>
<g><path style="opacity:1" fill="#2d3090" d="M 145.5,157.5 C 150.875,157.172 156.208,157.505 161.5,158.5C 162.896,167.677 162.562,176.677 160.5,185.5C 160.216,182.223 160.549,179.057 161.5,176C 159.899,170.761 158.899,165.261 158.5,159.5C 158.101,165.261 157.101,170.761 155.5,176C 158.244,177.324 159.577,179.491 159.5,182.5C 156.155,183.999 152.989,183.666 150,181.5C 148.331,183.353 148.165,185.353 149.5,187.5C 150.726,188.363 152.06,188.363 153.5,187.5C 152.833,188.833 152.167,190.167 151.5,191.5C 150.833,191.5 150.167,191.5 149.5,191.5C 148.167,191.5 146.833,191.5 145.5,191.5C 145.5,180.167 145.5,168.833 145.5,157.5 Z"/></g>
<g><path style="opacity:1" fill="#6d6eb5" d="M 143.5,155.5 C 150.354,155.176 157.021,155.509 163.5,156.5C 157.31,156.177 151.31,156.51 145.5,157.5C 144.505,168.988 144.172,180.655 144.5,192.5C 146.167,192.5 147.833,192.5 149.5,192.5C 147.735,193.461 145.735,193.795 143.5,193.5C 143.5,180.833 143.5,168.167 143.5,155.5 Z"/></g>
<g><path style="opacity:1" fill="#babade" d="M 165.5,187.5 C 165.167,187.5 164.833,187.5 164.5,187.5C 164.828,176.986 164.494,166.653 163.5,156.5C 157.021,155.509 150.354,155.176 143.5,155.5C 143.5,155.167 143.5,154.833 143.5,154.5C 150.568,153.173 157.735,153.173 165,154.5C 165.5,165.495 165.667,176.495 165.5,187.5 Z"/></g>
<g><path style="opacity:1" fill="#5a599e" d="M 176.5,145.5 C 183.167,145.5 189.833,145.5 196.5,145.5C 197.107,149.951 197.441,154.451 197.5,159C 197.49,163.229 196.823,167.062 195.5,170.5C 195.5,167.5 195.5,164.5 195.5,161.5C 195.5,156.833 195.5,152.167 195.5,147.5C 189.5,147.5 183.5,147.5 177.5,147.5C 177.334,156.839 177.5,166.173 178,175.5C 180.434,177.989 182.934,177.989 185.5,175.5C 185.833,175.5 186.167,175.5 186.5,175.5C 185.833,176.5 185.167,177.5 184.5,178.5C 181.67,178.694 179.004,179.361 176.5,180.5C 176.5,168.833 176.5,157.167 176.5,145.5 Z"/></g>
<g><path style="opacity:1" fill="#9292c0" d="M 111.5,154.5 C 111.833,154.5 112.167,154.5 112.5,154.5C 111.211,155.637 110.211,156.97 109.5,158.5C 108.833,158.5 108.5,158.833 108.5,159.5C 103.899,162.617 99.5656,165.95 95.5,169.5C 94.5,169.5 93.5,169.5 92.5,169.5C 91.375,168.652 91.375,167.652 92.5,166.5C 92.8333,165.5 93.5,164.833 94.5,164.5C 94.8333,164.5 95.1667,164.5 95.5,164.5C 95.3691,165.376 95.7025,166.043 96.5,166.5C 98.21,165.113 99.8767,163.779 101.5,162.5C 104.873,159.822 108.206,157.156 111.5,154.5 Z"/></g>
<g><path style="opacity:1" fill="#b9bbdd" d="M 102.5,154.5 C 101.529,156.483 100.529,158.483 99.5,160.5C 97.8333,161.5 96.5,162.833 95.5,164.5C 95.1667,164.5 94.8333,164.5 94.5,164.5C 95.0312,162.456 96.1978,160.789 98,159.5C 98.49,158.207 98.6567,156.873 98.5,155.5C 99.9587,155.567 101.292,155.234 102.5,154.5 Z"/></g>
<g><path style="opacity:1" fill="#d4d5ef" d="M 218.5,159.5 C 217.415,161.587 215.749,162.92 213.5,163.5C 214.539,161.469 216.205,160.136 218.5,159.5 Z"/></g>
<g><path style="opacity:1" fill="#e8edf8" d="M 108.5,159.5 C 107.91,160.766 107.41,162.099 107,163.5C 103.913,167.122 100.08,169.122 95.5,169.5C 99.5656,165.95 103.899,162.617 108.5,159.5 Z"/></g>
<g><path style="opacity:1" fill="#8d8ebe" d="M 243.5,159.5 C 243.5,160.833 243.5,162.167 243.5,163.5C 242.167,164.833 240.833,166.167 239.5,167.5C 239.5,166.833 239.5,166.167 239.5,165.5C 240.653,163.364 241.986,161.364 243.5,159.5 Z"/></g>
<g><path style="opacity:1" fill="#6362a0" d="M 99.5,160.5 C 99.5,161.833 100.167,162.5 101.5,162.5C 99.8767,163.779 98.21,165.113 96.5,166.5C 95.7025,166.043 95.3691,165.376 95.5,164.5C 96.5,162.833 97.8333,161.5 99.5,160.5 Z"/></g>
<g><path style="opacity:1" fill="#acacd3" d="M 196.5,145.5 C 197.167,145.833 197.833,146.167 198.5,146.5C 198.831,154.86 198.498,163.193 197.5,171.5C 196.378,172.63 195.044,173.297 193.5,173.5C 193.833,172.833 194.167,172.167 194.5,171.5C 195.167,171.5 195.5,171.167 195.5,170.5C 196.823,167.062 197.49,163.229 197.5,159C 197.441,154.451 197.107,149.951 196.5,145.5 Z"/></g>
<g><path style="opacity:1" fill="#9a9cca" d="M 218.5,159.5 C 218.833,159.5 219.167,159.5 219.5,159.5C 218.925,161.411 217.925,163.078 216.5,164.5C 213.236,166.094 210.569,168.427 208.5,171.5C 208.167,171.5 207.833,171.5 207.5,171.5C 206.833,171.5 206.167,171.5 205.5,171.5C 207.139,170.527 208.473,169.194 209.5,167.5C 211.167,166.5 212.5,165.167 213.5,163.5C 215.749,162.92 217.415,161.587 218.5,159.5 Z"/></g>
<g><path style="opacity:1" fill="#5a5a9f" d="M 216.5,164.5 C 214.431,167.573 211.764,169.906 208.5,171.5C 210.569,168.427 213.236,166.094 216.5,164.5 Z"/></g>
<g><path style="opacity:1" fill="#bdbccc" d="M 92.5,166.5 C 91.375,167.652 91.375,168.652 92.5,169.5C 91.5729,171.476 90.2395,171.809 88.5,170.5C 88.9655,168.192 90.2988,166.858 92.5,166.5 Z"/></g>
<g><path style="opacity:1" fill="#2e2f91" d="M 195.5,161.5 C 194.523,164.287 194.19,167.287 194.5,170.5C 191.813,170.336 189.146,170.503 186.5,171C 185.62,172.356 185.286,173.856 185.5,175.5C 182.934,177.989 180.434,177.989 178,175.5C 177.5,166.173 177.334,156.839 177.5,147.5C 183.5,147.5 189.5,147.5 195.5,147.5C 195.5,152.167 195.5,156.833 195.5,161.5 Z"/></g>
<g><path style="opacity:1" fill="#3c3c8d" d="M 239.5,165.5 C 239.5,166.167 239.5,166.833 239.5,167.5C 238.833,167.5 238.5,167.833 238.5,168.5C 235.19,170.482 232.19,172.815 229.5,175.5C 230.007,172.156 231.841,169.822 235,168.5C 235.483,167.552 235.649,166.552 235.5,165.5C 236.833,165.5 238.167,165.5 239.5,165.5 Z"/></g>
<g><path style="opacity:1" fill="#e5e8fa" d="M 131.5,171.5 C 124.646,171.176 117.979,171.509 111.5,172.5C 110.833,172.833 110.167,173.167 109.5,173.5C 109.414,172.504 109.748,171.671 110.5,171C 117.679,170.179 124.679,170.345 131.5,171.5 Z"/></g>
<g><path style="opacity:1" fill="#33358b" d="M 195.5,161.5 C 195.5,164.5 195.5,167.5 195.5,170.5C 195.5,171.167 195.167,171.5 194.5,171.5C 192.223,172.449 190.223,173.782 188.5,175.5C 187.833,175.5 187.167,175.5 186.5,175.5C 186.167,175.5 185.833,175.5 185.5,175.5C 185.286,173.856 185.62,172.356 186.5,171C 189.146,170.503 191.813,170.336 194.5,170.5C 194.19,167.287 194.523,164.287 195.5,161.5 Z"/></g>
<g><path style="opacity:1" fill="#bcbede" d="M 205.5,171.5 C 204.055,173.063 202.389,174.396 200.5,175.5C 201.129,173.003 202.796,171.67 205.5,171.5 Z"/></g>
<g><path style="opacity:1" fill="#c2bfdf" d="M 143.5,154.5 C 143.5,154.833 143.5,155.167 143.5,155.5C 143.5,168.167 143.5,180.833 143.5,193.5C 145.735,193.795 147.735,193.461 149.5,192.5C 149.5,192.167 149.5,191.833 149.5,191.5C 150.167,191.5 150.833,191.5 151.5,191.5C 152.167,191.5 152.833,191.5 153.5,191.5C 152.449,192.222 151.782,193.222 151.5,194.5C 148.298,195.7 145.131,195.7 142,194.5C 141.333,181.5 141.333,168.5 142,155.5C 142.383,154.944 142.883,154.611 143.5,154.5 Z"/></g>
<g><path style="opacity:1" fill="#8182be" d="M 194.5,171.5 C 194.167,172.167 193.833,172.833 193.5,173.5C 192.833,174.167 192.167,174.833 191.5,175.5C 190.5,175.5 189.5,175.5 188.5,175.5C 190.223,173.782 192.223,172.449 194.5,171.5 Z"/></g>
<g><path style="opacity:1" fill="#6969a5" d="M 205.5,171.5 C 206.167,171.5 206.833,171.5 207.5,171.5C 204.396,174.101 201.396,176.934 198.5,180C 197.207,180.49 195.873,180.657 194.5,180.5C 195.306,179.272 196.306,178.272 197.5,177.5C 199.027,177.573 200.027,176.906 200.5,175.5C 202.389,174.396 204.055,173.063 205.5,171.5 Z"/></g>
<g><path style="opacity:1" fill="#2e2f92" d="M 123.5,200.5 C 122.167,200.5 121.5,201.167 121.5,202.5C 121.167,202.5 120.833,202.5 120.5,202.5C 119.167,202.5 117.833,202.5 116.5,202.5C 115.167,202.5 113.833,202.5 112.5,202.5C 112.5,193.5 112.5,184.5 112.5,175.5C 118.167,175.5 123.833,175.5 129.5,175.5C 129.5,182.833 129.5,190.167 129.5,197.5C 126.607,197.031 124.607,198.031 123.5,200.5 Z"/></g>
<g><path style="opacity:1" fill="#3d3f8d" d="M 111.5,174.5 C 117.833,174.5 124.167,174.5 130.5,174.5C 130.5,182.5 130.5,190.5 130.5,198.5C 128.597,198.796 126.93,199.463 125.5,200.5C 124.833,200.5 124.167,200.5 123.5,200.5C 124.607,198.031 126.607,197.031 129.5,197.5C 129.5,190.167 129.5,182.833 129.5,175.5C 123.833,175.5 118.167,175.5 112.5,175.5C 112.5,184.5 112.5,193.5 112.5,202.5C 113.833,202.5 115.167,202.5 116.5,202.5C 115.22,203.931 113.553,204.598 111.5,204.5C 111.5,194.5 111.5,184.5 111.5,174.5 Z"/></g>
<g><path style="opacity:1" fill="#7071b0" d="M 111.5,172.5 C 118.09,172.189 124.59,172.522 131,173.5C 131.823,182.01 131.657,190.344 130.5,198.5C 130.5,190.5 130.5,182.5 130.5,174.5C 124.167,174.5 117.833,174.5 111.5,174.5C 111.5,173.833 111.5,173.167 111.5,172.5 Z"/></g>
<g><path style="opacity:1" fill="#bbbbe1" d="M 111.5,172.5 C 117.979,171.509 124.646,171.176 131.5,171.5C 131.783,172.289 132.283,172.956 133,173.5C 133.667,182.167 133.667,190.833 133,199.5C 130.865,201.278 128.365,201.945 125.5,201.5C 125.5,201.167 125.5,200.833 125.5,200.5C 127.698,200.88 129.365,200.213 130.5,198.5C 131.657,190.344 131.823,182.01 131,173.5C 124.59,172.522 118.09,172.189 111.5,172.5 Z"/></g>
<g><path style="opacity:1" fill="#eaeaf9" d="M 131.5,171.5 C 132.5,171.5 133.5,171.5 134.5,171.5C 134.666,181.172 134.5,190.839 134,200.5C 130.455,202.516 126.622,203.849 122.5,204.5C 123.694,203.728 124.694,202.728 125.5,201.5C 128.365,201.945 130.865,201.278 133,199.5C 133.667,190.833 133.667,182.167 133,173.5C 132.283,172.956 131.783,172.289 131.5,171.5 Z"/></g>
<g><path style="opacity:1" fill="#c0bee8" d="M 200.5,175.5 C 200.027,176.906 199.027,177.573 197.5,177.5C 197.821,175.952 198.821,175.285 200.5,175.5 Z"/></g>
<g><path style="opacity:1" fill="#b5b4d6" d="M 186.5,175.5 C 187.167,175.5 187.833,175.5 188.5,175.5C 189.5,175.5 190.5,175.5 191.5,175.5C 189.824,177.834 187.491,178.834 184.5,178.5C 185.167,177.5 185.833,176.5 186.5,175.5 Z"/></g>
<g><path style="opacity:1" fill="#6867a2" d="M 163.5,156.5 C 164.494,166.653 164.828,176.986 164.5,187.5C 164.167,187.5 163.833,187.5 163.5,187.5C 162.833,187.5 162.167,187.5 161.5,187.5C 163.438,177.425 164.105,167.091 163.5,156.5 Z"/></g>
<g><path style="opacity:1" fill="#ecedf9" d="M 198.5,146.5 C 200.305,153.768 201.139,161.435 201,169.5C 203.792,169.647 206.625,168.98 209.5,167.5C 208.473,169.194 207.139,170.527 205.5,171.5C 202.796,171.67 201.129,173.003 200.5,175.5C 198.821,175.285 197.821,175.952 197.5,177.5C 194.392,177.375 192.392,178.708 191.5,181.5C 189.249,182.411 187.249,183.744 185.5,185.5C 181.82,186.56 178.154,187.726 174.5,189C 173.619,189.708 172.953,190.542 172.5,191.5C 171.5,191.5 170.5,191.5 169.5,191.5C 170.348,189.907 171.681,188.74 173.5,188C 176.628,187.125 179.628,185.958 182.5,184.5C 183.653,183.313 183.653,182.313 182.5,181.5C 183.167,180.5 183.833,179.5 184.5,178.5C 187.491,178.834 189.824,177.834 191.5,175.5C 192.167,174.833 192.833,174.167 193.5,173.5C 195.044,173.297 196.378,172.63 197.5,171.5C 198.498,163.193 198.831,154.86 198.5,146.5 Z"/></g>
<g><path style="opacity:1" fill="#686ca6" d="M 238.5,168.5 C 236.167,171.003 234.001,173.669 232,176.5C 228.977,178.698 226.144,181.031 223.5,183.5C 222.833,183.833 222.167,184.167 221.5,184.5C 221.281,183.325 221.614,182.325 222.5,181.5C 224.261,180.965 225.594,179.965 226.5,178.5C 227.728,177.694 228.728,176.694 229.5,175.5C 232.19,172.815 235.19,170.482 238.5,168.5 Z"/></g>
<g><path style="opacity:1" fill="#eaebf9" d="M 109.5,173.5 C 109.21,184.884 109.543,196.217 110.5,207.5C 109.171,202.208 108.504,196.542 108.5,190.5C 108.501,184.657 108.834,178.99 109.5,173.5 Z"/></g>
<g><path style="opacity:1" fill="#c6c7ee" d="M 197.5,177.5 C 196.306,178.272 195.306,179.272 194.5,180.5C 193.391,180.557 192.391,180.89 191.5,181.5C 192.392,178.708 194.392,177.375 197.5,177.5 Z"/></g>
<g><path style="opacity:1" fill="#bec2e5" d="M 239.5,167.5 C 236.398,175.016 231.064,180.35 223.5,183.5C 226.144,181.031 228.977,178.698 232,176.5C 234.001,173.669 236.167,171.003 238.5,168.5C 238.5,167.833 238.833,167.5 239.5,167.5 Z"/></g>
<g><path style="opacity:1" fill="#3f3d90" d="M 145.5,157.5 C 151.31,156.51 157.31,156.177 163.5,156.5C 164.105,167.091 163.438,177.425 161.5,187.5C 158.198,187.912 155.531,189.245 153.5,191.5C 152.833,191.5 152.167,191.5 151.5,191.5C 152.167,190.167 152.833,188.833 153.5,187.5C 155.715,186.732 158.048,186.065 160.5,185.5C 162.562,176.677 162.896,167.677 161.5,158.5C 156.208,157.505 150.875,157.172 145.5,157.5 Z"/></g>
<g><path style="opacity:1" fill="#2e2f92" d="M 239.5,162.5 C 239.5,163.5 239.5,164.5 239.5,165.5C 238.167,165.5 236.833,165.5 235.5,165.5C 235.649,166.552 235.483,167.552 235,168.5C 231.841,169.822 230.007,172.156 229.5,175.5C 228.728,176.694 227.728,177.694 226.5,178.5C 224.063,178.756 221.729,179.423 219.5,180.5C 217.332,183.923 214.665,186.923 211.5,189.5C 209.112,195.243 207.946,201.243 208,207.5C 206.833,209.333 205.333,210.833 203.5,212C 205.271,212.535 205.604,213.369 204.5,214.5C 197.558,215.464 190.558,215.797 183.5,215.5C 183.802,212.941 183.468,210.607 182.5,208.5C 181.399,207.402 180.066,207.235 178.5,208C 176.881,208.236 175.881,209.069 175.5,210.5C 173.273,211.401 172.273,213.067 172.5,215.5C 168.027,216.051 163.693,216.717 159.5,217.5C 154.066,216.773 149.066,217.773 144.5,220.5C 143.614,221.325 143.281,222.325 143.5,223.5C 142.833,223.5 142.167,223.5 141.5,223.5C 139.473,223.338 137.473,223.505 135.5,224C 134.944,224.383 134.611,224.883 134.5,225.5C 132.956,225.703 131.622,226.37 130.5,227.5C 129.201,226.91 128.368,225.91 128,224.5C 127.505,226.473 127.338,228.473 127.5,230.5C 131.35,230.701 132.35,232.534 130.5,236C 129.552,236.483 128.552,236.649 127.5,236.5C 127.5,237.5 127.5,238.5 127.5,239.5C 126.5,239.5 125.5,239.5 124.5,239.5C 124.773,225.198 123.44,225.198 120.5,239.5C 118.408,239.439 116.908,238.439 116,236.5C 114.735,233.539 113.569,230.539 112.5,227.5C 114.325,225.395 116.325,224.229 118.5,224C 117.552,223.517 116.552,223.351 115.5,223.5C 115.277,219.375 113.777,218.709 111,221.5C 109.933,220.809 108.766,220.309 107.5,220C 108.756,219.583 109.423,218.75 109.5,217.5C 110.167,216.833 110.833,216.167 111.5,215.5C 118.866,214.099 126.2,212.599 133.5,211C 135.859,209.758 137.859,208.258 139.5,206.5C 142.649,206.585 145.316,205.585 147.5,203.5C 152.232,203.373 156.232,201.707 159.5,198.5C 161.153,198.34 162.486,197.674 163.5,196.5C 168.913,195.957 173.913,194.457 178.5,192C 180.426,191.578 181.426,190.411 181.5,188.5C 184.313,188.975 186.313,187.975 187.5,185.5C 190.255,184.369 192.589,182.702 194.5,180.5C 195.873,180.657 197.207,180.49 198.5,180C 201.396,176.934 204.396,174.101 207.5,171.5C 207.833,171.5 208.167,171.5 208.5,171.5C 211.764,169.906 214.431,167.573 216.5,164.5C 217.925,163.078 218.925,161.411 219.5,159.5C 219.833,159.5 220.167,159.5 220.5,159.5C 221.609,159.443 222.609,159.11 223.5,158.5C 225.363,156.295 227.697,154.961 230.5,154.5C 230.5,156.167 230.5,157.833 230.5,159.5C 229.5,159.5 228.5,159.5 227.5,159.5C 227.5,160.5 227.5,161.5 227.5,162.5C 230.652,163.041 233.152,162.041 235,159.5C 234.438,150.199 233.938,140.866 233.5,131.5C 234.5,131.5 235.5,131.5 236.5,131.5C 236.238,132.978 236.571,134.311 237.5,135.5C 238.72,134.289 239.887,134.289 241,135.5C 241.333,138.833 241.667,142.167 242,145.5C 242.333,144.833 242.667,144.167 243,143.5C 243.667,146.167 243.667,148.833 243,151.5C 239.966,154.514 238.799,158.181 239.5,162.5 Z"/></g>
<g><path style="opacity:1" fill="#2d2d97" d="M 160.5,185.5 C 158.048,186.065 155.715,186.732 153.5,187.5C 152.06,188.363 150.726,188.363 149.5,187.5C 148.165,185.353 148.331,183.353 150,181.5C 152.989,183.666 156.155,183.999 159.5,182.5C 159.577,179.491 158.244,177.324 155.5,176C 157.101,170.761 158.101,165.261 158.5,159.5C 158.899,165.261 159.899,170.761 161.5,176C 160.549,179.057 160.216,182.223 160.5,185.5 Z"/></g>
<g><path style="opacity:1" fill="#7b7cb8" d="M 194.5,180.5 C 192.589,182.702 190.255,184.369 187.5,185.5C 186.833,185.5 186.167,185.5 185.5,185.5C 187.249,183.744 189.249,182.411 191.5,181.5C 192.391,180.89 193.391,180.557 194.5,180.5 Z"/></g>
<g><path style="opacity:1" fill="#7374ad" d="M 220.5,184.5 C 219.167,186.5 217.5,188.167 215.5,189.5C 216.167,186.833 217.833,185.167 220.5,184.5 Z"/></g>
<g><path style="opacity:1" fill="#7677af" d="M 79.5,188.5 C 79.5,188.167 79.5,187.833 79.5,187.5C 86.1667,187.5 92.8333,187.5 99.5,187.5C 99.825,195.019 99.4916,202.352 98.5,209.5C 98.5,202.833 98.5,196.167 98.5,189.5C 92.3554,188.51 86.0221,188.177 79.5,188.5 Z"/></g>
<g><path style="opacity:1" fill="#4b4b96" d="M 185.5,185.5 C 186.167,185.5 186.833,185.5 187.5,185.5C 186.313,187.975 184.313,188.975 181.5,188.5C 183.076,187.857 184.41,186.857 185.5,185.5 Z"/></g>
<g><path style="opacity:1" fill="#a0a0cc" d="M 185.5,185.5 C 184.41,186.857 183.076,187.857 181.5,188.5C 178.298,189.047 175.298,190.047 172.5,191.5C 172.953,190.542 173.619,189.708 174.5,189C 178.154,187.726 181.82,186.56 185.5,185.5 Z"/></g>
<g><path style="opacity:1" fill="#8b8abe" d="M 161.5,187.5 C 162.167,187.5 162.833,187.5 163.5,187.5C 160.375,189.126 157.042,190.46 153.5,191.5C 155.531,189.245 158.198,187.912 161.5,187.5 Z"/></g>
<g><path style="opacity:1" fill="#c2c3e6" d="M 223.5,183.5 C 221.255,186.251 218.755,188.917 216,191.5C 215.697,194.999 214.864,198.332 213.5,201.5C 212.5,203.5 211.5,205.5 210.5,207.5C 211.09,203.397 212.09,199.397 213.5,195.5C 214.285,193.626 214.952,191.626 215.5,189.5C 217.5,188.167 219.167,186.5 220.5,184.5C 220.833,184.5 221.167,184.5 221.5,184.5C 222.167,184.167 222.833,183.833 223.5,183.5 Z"/></g>
<g><path style="opacity:1" fill="#4b4b98" d="M 145.5,157.5 C 145.5,168.833 145.5,180.167 145.5,191.5C 146.833,191.5 148.167,191.5 149.5,191.5C 149.5,191.833 149.5,192.167 149.5,192.5C 147.833,192.5 146.167,192.5 144.5,192.5C 144.172,180.655 144.505,168.988 145.5,157.5 Z"/></g>
<g><path style="opacity:1" fill="#e1e1f5" d="M 163.5,187.5 C 163.833,187.5 164.167,187.5 164.5,187.5C 164.833,187.5 165.167,187.5 165.5,187.5C 165.586,188.496 165.252,189.329 164.5,190C 159.958,190.94 155.624,192.44 151.5,194.5C 151.782,193.222 152.449,192.222 153.5,191.5C 157.042,190.46 160.375,189.126 163.5,187.5 Z"/></g>
<g><path style="opacity:1" fill="#d4d5ed" d="M 99.5,187.5 C 92.8333,187.5 86.1667,187.5 79.5,187.5C 78.8826,187.611 78.3826,187.944 78,188.5C 77.5002,197.16 77.3336,205.827 77.5,214.5C 76.3427,205.676 76.176,196.676 77,187.5C 84.5985,186.173 92.0985,186.173 99.5,187.5 Z"/></g>
<g><path style="opacity:1" fill="#4f51a0" d="M 79.5,188.5 C 86.0221,188.177 92.3554,188.51 98.5,189.5C 92.5746,189.192 86.7412,189.525 81,190.5C 80.5003,197.826 80.3337,205.159 80.5,212.5C 81.8333,212.5 83.1667,212.5 84.5,212.5C 83.0813,213.451 81.4147,213.784 79.5,213.5C 79.5,205.167 79.5,196.833 79.5,188.5 Z"/></g>
<g><path style="opacity:1" fill="#32358d" d="M 98.5,189.5 C 98.5,196.167 98.5,202.833 98.5,209.5C 96.5,209.833 94.5,210.167 92.5,210.5C 93.7804,209.069 95.4471,208.402 97.5,208.5C 97.8288,202.794 97.4954,197.128 96.5,191.5C 92.5575,190.4 88.5575,190.233 84.5,191C 83.0521,197.586 83.3854,204.086 85.5,210.5C 86.5,210.5 87.5,210.5 88.5,210.5C 87.4863,211.674 86.153,212.34 84.5,212.5C 83.1667,212.5 81.8333,212.5 80.5,212.5C 80.3337,205.159 80.5003,197.826 81,190.5C 86.7412,189.525 92.5746,189.192 98.5,189.5 Z"/></g>
<g><path style="opacity:1" fill="#2d2f92" d="M 92.5,210.5 C 91.1667,210.5 89.8333,210.5 88.5,210.5C 87.5,210.5 86.5,210.5 85.5,210.5C 83.3854,204.086 83.0521,197.586 84.5,191C 88.5575,190.233 92.5575,190.4 96.5,191.5C 97.4954,197.128 97.8288,202.794 97.5,208.5C 95.4471,208.402 93.7804,209.069 92.5,210.5 Z"/></g>
<g><path style="opacity:1" fill="#bcb9df" d="M 111.5,172.5 C 111.5,173.167 111.5,173.833 111.5,174.5C 111.5,184.5 111.5,194.5 111.5,204.5C 112.919,205.451 114.585,205.784 116.5,205.5C 114.786,206.738 112.786,207.405 110.5,207.5C 109.543,196.217 109.21,184.884 109.5,173.5C 110.167,173.167 110.833,172.833 111.5,172.5 Z"/></g>
<g><path style="opacity:1" fill="#444393" d="M 181.5,188.5 C 181.426,190.411 180.426,191.578 178.5,192C 173.913,194.457 168.913,195.957 163.5,196.5C 164.287,194.896 165.62,194.229 167.5,194.5C 169.933,194.727 171.599,193.727 172.5,191.5C 175.298,190.047 178.298,189.047 181.5,188.5 Z"/></g>
<g><path style="opacity:1" fill="#918fc6" d="M 213.5,189.5 C 214.167,189.5 214.833,189.5 215.5,189.5C 214.952,191.626 214.285,193.626 213.5,195.5C 213.5,193.5 213.5,191.5 213.5,189.5 Z"/></g>
<g><path style="opacity:1" fill="#8788c0" d="M 169.5,191.5 C 170.5,191.5 171.5,191.5 172.5,191.5C 171.599,193.727 169.933,194.727 167.5,194.5C 167.5,194.167 167.5,193.833 167.5,193.5C 167.833,192.5 168.5,191.833 169.5,191.5 Z"/></g>
<g><path style="opacity:1" fill="#3a3b90" d="M 226.5,178.5 C 225.594,179.965 224.261,180.965 222.5,181.5C 221.614,182.325 221.281,183.325 221.5,184.5C 221.167,184.5 220.833,184.5 220.5,184.5C 217.833,185.167 216.167,186.833 215.5,189.5C 214.833,189.5 214.167,189.5 213.5,189.5C 211.293,195.186 209.96,201.186 209.5,207.5C 208.186,210.479 206.853,213.479 205.5,216.5C 197.833,216.5 190.167,216.5 182.5,216.5C 182.5,213.833 182.5,211.167 182.5,208.5C 183.468,210.607 183.802,212.941 183.5,215.5C 190.558,215.797 197.558,215.464 204.5,214.5C 205.604,213.369 205.271,212.535 203.5,212C 205.333,210.833 206.833,209.333 208,207.5C 207.946,201.243 209.112,195.243 211.5,189.5C 214.665,186.923 217.332,183.923 219.5,180.5C 221.729,179.423 224.063,178.756 226.5,178.5 Z"/></g>
<g><path style="opacity:1" fill="#b6b7dc" d="M 167.5,193.5 C 167.5,193.833 167.5,194.167 167.5,194.5C 165.62,194.229 164.287,194.896 163.5,196.5C 162.833,196.5 162.167,196.5 161.5,196.5C 162.607,194.031 164.607,193.031 167.5,193.5 Z"/></g>
<g><path style="opacity:1" fill="#b7b9de" d="M 159.5,197.5 C 159.5,197.833 159.5,198.167 159.5,198.5C 157.435,198.517 155.435,198.85 153.5,199.5C 154.918,197.692 156.918,197.025 159.5,197.5 Z"/></g>
<g><path style="opacity:1" fill="#7172b5" d="M 161.5,196.5 C 162.167,196.5 162.833,196.5 163.5,196.5C 162.486,197.674 161.153,198.34 159.5,198.5C 159.5,198.167 159.5,197.833 159.5,197.5C 159.842,196.662 160.508,196.328 161.5,196.5 Z"/></g>
<g><path style="opacity:1" fill="#6a6c9d" d="M 130.5,198.5 C 129.365,200.213 127.698,200.88 125.5,200.5C 126.93,199.463 128.597,198.796 130.5,198.5 Z"/></g>
<g><path style="opacity:1" fill="#7375ac" d="M 123.5,200.5 C 124.167,200.5 124.833,200.5 125.5,200.5C 125.5,200.833 125.5,201.167 125.5,201.5C 124.167,201.833 122.833,202.167 121.5,202.5C 121.5,201.167 122.167,200.5 123.5,200.5 Z"/></g>
<g><path style="opacity:1" fill="#5d5ea1" d="M 213.5,189.5 C 213.5,191.5 213.5,193.5 213.5,195.5C 212.09,199.397 211.09,203.397 210.5,207.5C 210.167,207.5 209.833,207.5 209.5,207.5C 209.96,201.186 211.293,195.186 213.5,189.5 Z"/></g>
<g><path style="opacity:1" fill="#e3e3f6" d="M 147.5,200.5 C 146.41,201.857 145.076,202.857 143.5,203.5C 139.703,203.872 136.37,205.206 133.5,207.5C 132.833,207.5 132.167,207.5 131.5,207.5C 130.833,207.5 130.167,207.5 129.5,207.5C 134.654,203.434 140.654,201.1 147.5,200.5 Z"/></g>
<g><path style="opacity:1" fill="#a4a2ce" d="M 153.5,199.5 C 151.5,200.833 149.5,202.167 147.5,203.5C 146.167,203.5 144.833,203.5 143.5,203.5C 145.076,202.857 146.41,201.857 147.5,200.5C 149.565,200.483 151.565,200.15 153.5,199.5 Z"/></g>
<g><path style="opacity:1" fill="#56539b" d="M 159.5,198.5 C 156.232,201.707 152.232,203.373 147.5,203.5C 149.5,202.167 151.5,200.833 153.5,199.5C 155.435,198.85 157.435,198.517 159.5,198.5 Z"/></g>
<g><path style="opacity:1" fill="#9fa1ca" d="M 99.5,187.5 C 100.492,194.982 100.825,202.648 100.5,210.5C 97.1667,211.167 93.8333,211.833 90.5,212.5C 91.1667,211.833 91.8333,211.167 92.5,210.5C 94.5,210.167 96.5,209.833 98.5,209.5C 99.4916,202.352 99.825,195.019 99.5,187.5 Z"/></g>
<g><path style="opacity:1" fill="#8b8cbf" d="M 116.5,202.5 C 117.833,202.5 119.167,202.5 120.5,202.5C 119.167,203.5 117.833,204.5 116.5,205.5C 114.585,205.784 112.919,205.451 111.5,204.5C 113.553,204.598 115.22,203.931 116.5,202.5 Z"/></g>
<g><path style="opacity:1" fill="#d0d1ee" d="M 125.5,201.5 C 124.694,202.728 123.694,203.728 122.5,204.5C 120.621,205.341 118.621,205.675 116.5,205.5C 117.833,204.5 119.167,203.5 120.5,202.5C 120.833,202.5 121.167,202.5 121.5,202.5C 122.833,202.167 124.167,201.833 125.5,201.5 Z"/></g>
<g><path style="opacity:1" fill="#5554a1" d="M 143.5,203.5 C 144.833,203.5 146.167,203.5 147.5,203.5C 145.316,205.585 142.649,206.585 139.5,206.5C 140.833,205.5 142.167,204.5 143.5,203.5 Z"/></g>
<g><path style="opacity:1" fill="#8787c1" d="M 143.5,203.5 C 142.167,204.5 140.833,205.5 139.5,206.5C 137.565,207.15 135.565,207.483 133.5,207.5C 136.37,205.206 139.703,203.872 143.5,203.5 Z"/></g>
<g><path style="opacity:1" fill="#97a0db" d="M 129.5,207.5 C 130.167,207.5 130.833,207.5 131.5,207.5C 130.486,208.674 129.153,209.34 127.5,209.5C 127.5,209.167 127.5,208.833 127.5,208.5C 127.842,207.662 128.508,207.328 129.5,207.5 Z"/></g>
<g><path style="opacity:1" fill="#434594" d="M 139.5,206.5 C 137.859,208.258 135.859,209.758 133.5,211C 126.2,212.599 118.866,214.099 111.5,215.5C 111.5,215.167 111.5,214.833 111.5,214.5C 111.5,214.167 111.5,213.833 111.5,213.5C 112.833,213.5 114.167,213.5 115.5,213.5C 119.767,212.744 123.767,211.411 127.5,209.5C 129.153,209.34 130.486,208.674 131.5,207.5C 132.167,207.5 132.833,207.5 133.5,207.5C 135.565,207.483 137.565,207.15 139.5,206.5 Z"/></g>
<g><path style="opacity:1" fill="#9f9cc8" d="M 79.5,187.5 C 79.5,187.833 79.5,188.167 79.5,188.5C 79.5,196.833 79.5,205.167 79.5,213.5C 80.9187,214.451 82.5853,214.784 84.5,214.5C 82.2743,215.756 79.941,215.756 77.5,214.5C 77.3336,205.827 77.5002,197.16 78,188.5C 78.3826,187.944 78.8826,187.611 79.5,187.5 Z"/></g>
<g><path style="opacity:1" fill="#cecfeb" d="M 127.5,208.5 C 127.5,208.833 127.5,209.167 127.5,209.5C 124.123,209.959 120.789,210.626 117.5,211.5C 120.288,209.024 123.622,208.024 127.5,208.5 Z"/></g>
<g><path style="opacity:1" fill="#7a7ab2" d="M 127.5,209.5 C 123.767,211.411 119.767,212.744 115.5,213.5C 116.167,212.833 116.833,212.167 117.5,211.5C 120.789,210.626 124.123,209.959 127.5,209.5 Z"/></g>
<g><path style="opacity:1" fill="#adaecd" d="M 117.5,211.5 C 116.833,212.167 116.167,212.833 115.5,213.5C 114.167,213.5 112.833,213.5 111.5,213.5C 113.102,211.926 115.102,211.259 117.5,211.5 Z"/></g>
<g><path style="opacity:1" fill="#7673b2" d="M 88.5,210.5 C 89.8333,210.5 91.1667,210.5 92.5,210.5C 91.8333,211.167 91.1667,211.833 90.5,212.5C 88.5,213.167 86.5,213.833 84.5,214.5C 82.5853,214.784 80.9187,214.451 79.5,213.5C 81.4147,213.784 83.0813,213.451 84.5,212.5C 86.153,212.34 87.4863,211.674 88.5,210.5 Z"/></g>
<g><path style="opacity:1" fill="#ccd0eb" d="M 111.5,213.5 C 111.5,213.833 111.5,214.167 111.5,214.5C 108.447,214.111 105.78,214.777 103.5,216.5C 102.833,216.5 102.167,216.5 101.5,216.5C 99.4352,216.517 97.4352,216.85 95.5,217.5C 95.5,217.167 95.5,216.833 95.5,216.5C 100.49,214.378 105.823,213.378 111.5,213.5 Z"/></g>
<g><path style="opacity:1" fill="#cbcbea" d="M 177.5,211.5 C 177.5,211.167 177.5,210.833 177.5,210.5C 178.5,210.5 179.5,210.5 180.5,210.5C 180.5,212.833 180.5,215.167 180.5,217.5C 180.06,215.156 179.06,213.156 177.5,211.5 Z"/></g>
<g><path style="opacity:1" fill="#e4e7f9" d="M 213.5,201.5 C 213.029,205.356 212.362,209.189 211.5,213C 210.702,215.287 209.369,217.12 207.5,218.5C 208.241,214.708 209.241,211.041 210.5,207.5C 211.5,205.5 212.5,203.5 213.5,201.5 Z"/></g>
<g><path style="opacity:1" fill="#e9eaf6" d="M 100.5,210.5 C 98.0345,212.481 95.2012,213.815 92,214.5C 91.8333,214.833 91.6667,215.167 91.5,215.5C 92.6888,216.429 94.0222,216.762 95.5,216.5C 95.5,216.833 95.5,217.167 95.5,217.5C 95.5,217.833 95.5,218.167 95.5,218.5C 94.8333,218.5 94.1667,218.5 93.5,218.5C 90.5718,218.565 87.9052,219.232 85.5,220.5C 82.3915,220.264 79.3915,220.597 76.5,221.5C 78.7171,219.92 81.3837,218.92 84.5,218.5C 82.5767,217.692 80.5767,217.192 78.5,217C 77.7476,216.329 77.4142,215.496 77.5,214.5C 79.941,215.756 82.2743,215.756 84.5,214.5C 86.5,213.833 88.5,213.167 90.5,212.5C 93.8333,211.833 97.1667,211.167 100.5,210.5 Z"/></g>
<g><path style="opacity:1" fill="#8385bd" d="M 111.5,214.5 C 111.5,214.833 111.5,215.167 111.5,215.5C 108.833,215.833 106.167,216.167 103.5,216.5C 105.78,214.777 108.447,214.111 111.5,214.5 Z"/></g>
<g><path style="opacity:1" fill="#5a5aa0" d="M 172.5,215.5 C 172.389,216.117 172.056,216.617 171.5,217C 167.514,217.499 163.514,217.666 159.5,217.5C 163.693,216.717 168.027,216.051 172.5,215.5 Z"/></g>
<g><path style="opacity:1" fill="#6665a9" d="M 182.5,208.5 C 182.5,211.167 182.5,213.833 182.5,216.5C 190.167,216.5 197.833,216.5 205.5,216.5C 197.684,217.492 189.684,217.826 181.5,217.5C 181.5,214.833 181.5,212.167 181.5,209.5C 179.901,209.232 178.568,209.566 177.5,210.5C 176.833,210.5 176.167,210.5 175.5,210.5C 175.881,209.069 176.881,208.236 178.5,208C 180.066,207.235 181.399,207.402 182.5,208.5 Z"/></g>
<g><path style="opacity:1" fill="#9294c8" d="M 101.5,216.5 C 99.8984,218.074 97.8984,218.741 95.5,218.5C 95.5,218.167 95.5,217.833 95.5,217.5C 97.4352,216.85 99.4352,216.517 101.5,216.5 Z"/></g>
<g><path style="opacity:1" fill="#52529c" d="M 111.5,215.5 C 110.833,216.167 110.167,216.833 109.5,217.5C 103.571,218.71 97.5709,219.71 91.5,220.5C 92.1667,219.833 92.8333,219.167 93.5,218.5C 94.1667,218.5 94.8333,218.5 95.5,218.5C 97.8984,218.741 99.8984,218.074 101.5,216.5C 102.167,216.5 102.833,216.5 103.5,216.5C 106.167,216.167 108.833,215.833 111.5,215.5 Z"/></g>
<g><path style="opacity:1" fill="#8c8dbe" d="M 175.5,210.5 C 176.167,210.5 176.833,210.5 177.5,210.5C 177.5,210.833 177.5,211.167 177.5,211.5C 176.504,211.414 175.671,211.748 175,212.5C 174.576,215.025 173.41,217.025 171.5,218.5C 167.5,218.5 163.5,218.5 159.5,218.5C 159.5,218.167 159.5,217.833 159.5,217.5C 163.514,217.666 167.514,217.499 171.5,217C 172.056,216.617 172.389,216.117 172.5,215.5C 172.273,213.067 173.273,211.401 175.5,210.5 Z"/></g>
<g><path style="opacity:1" fill="#9898c8" d="M 209.5,207.5 C 209.833,207.5 210.167,207.5 210.5,207.5C 209.241,211.041 208.241,214.708 207.5,218.5C 198.318,218.827 189.318,218.493 180.5,217.5C 180.5,215.167 180.5,212.833 180.5,210.5C 179.5,210.5 178.5,210.5 177.5,210.5C 178.568,209.566 179.901,209.232 181.5,209.5C 181.5,212.167 181.5,214.833 181.5,217.5C 189.684,217.826 197.684,217.492 205.5,216.5C 206.853,213.479 208.186,210.479 209.5,207.5 Z"/></g>
<g><path style="opacity:1" fill="#42418f" d="M 159.5,217.5 C 159.5,217.833 159.5,218.167 159.5,218.5C 158.833,218.5 158.167,218.5 157.5,218.5C 154.353,218.737 151.353,219.57 148.5,221C 147.619,221.708 146.953,222.542 146.5,223.5C 145.5,223.5 144.5,223.5 143.5,223.5C 143.281,222.325 143.614,221.325 144.5,220.5C 149.066,217.773 154.066,216.773 159.5,217.5 Z"/></g>
<g><path style="opacity:1" fill="#c6c8e7" d="M 157.5,218.5 C 158.167,218.5 158.833,218.5 159.5,218.5C 163.5,218.5 167.5,218.5 171.5,218.5C 166.331,219.381 160.998,220.048 155.5,220.5C 156.167,219.833 156.833,219.167 157.5,218.5 Z"/></g>
<g><path style="opacity:1" fill="#a9aad5" d="M 93.5,218.5 C 92.8333,219.167 92.1667,219.833 91.5,220.5C 90.8333,220.5 90.1667,220.5 89.5,220.5C 88.1667,220.5 86.8333,220.5 85.5,220.5C 87.9052,219.232 90.5718,218.565 93.5,218.5 Z"/></g>
<g><path style="opacity:1" fill="#6564a7" d="M 85.5,220.5 C 86.8333,220.5 88.1667,220.5 89.5,220.5C 86.4701,222.13 83.1368,223.13 79.5,223.5C 81.1561,221.94 83.1561,220.94 85.5,220.5 Z"/></g>
<g><path style="opacity:1" fill="#8e8fc4" d="M 157.5,218.5 C 156.833,219.167 156.167,219.833 155.5,220.5C 155.167,220.5 154.833,220.5 154.5,220.5C 151.645,221.117 148.978,222.117 146.5,223.5C 146.953,222.542 147.619,221.708 148.5,221C 151.353,219.57 154.353,218.737 157.5,218.5 Z"/></g>
<g><path style="opacity:1" fill="#aeaed1" d="M 85.5,220.5 C 83.1561,220.94 81.1561,221.94 79.5,223.5C 78.8333,223.5 78.1667,223.5 77.5,223.5C 72.7665,224.666 68.0998,225.666 63.5,226.5C 61.0971,226.448 58.7638,226.781 56.5,227.5C 57.5903,226.143 58.9236,225.143 60.5,224.5C 66.1771,224.622 71.5105,223.622 76.5,221.5C 79.3915,220.597 82.3915,220.264 85.5,220.5 Z"/></g>
<g><path style="opacity:1" fill="#e1e4f4" d="M 195.5,231.5 C 195.5,230.833 195.5,230.167 195.5,229.5C 196.434,228.432 196.768,227.099 196.5,225.5C 189.087,224.872 182.087,225.539 175.5,227.5C 173.837,229.438 173.171,231.772 173.5,234.5C 173.5,235.167 173.5,235.833 173.5,236.5C 171.676,239.09 170.343,242.09 169.5,245.5C 169.167,245.5 168.833,245.5 168.5,245.5C 168.666,241.627 167.666,240.96 165.5,243.5C 165.264,240.774 166.097,238.441 168,236.5C 169.015,232.56 169.515,228.56 169.5,224.5C 171.117,225.589 171.95,227.256 172,229.5C 172.304,227.559 173.137,225.893 174.5,224.5C 181.811,223.335 189.144,223.169 196.5,224C 197.428,224.388 198.095,225.055 198.5,226C 198.141,228.296 197.141,230.129 195.5,231.5 Z"/></g>
<g><path style="opacity:1" fill="#5c5996" d="M 141.5,223.5 C 139.5,224.5 137.5,225.5 135.5,226.5C 135.167,226.5 134.833,226.5 134.5,226.5C 134.5,226.167 134.5,225.833 134.5,225.5C 134.611,224.883 134.944,224.383 135.5,224C 137.473,223.505 139.473,223.338 141.5,223.5 Z"/></g>
<g><path style="opacity:1" fill="#c3c4e2" d="M 154.5,220.5 C 153.251,222.136 151.584,223.303 149.5,224C 156.158,224.5 162.825,224.666 169.5,224.5C 169.515,228.56 169.015,232.56 168,236.5C 166.097,238.441 165.264,240.774 165.5,243.5C 164.167,245.5 162.833,247.5 161.5,249.5C 161.5,248.833 161.5,248.167 161.5,247.5C 161.5,246.833 161.5,246.167 161.5,245.5C 163.95,240.725 165.95,235.725 167.5,230.5C 168.434,229.432 168.768,228.099 168.5,226.5C 160.677,225.344 152.677,225.177 144.5,226C 143.944,226.383 143.611,226.883 143.5,227.5C 141.958,226.699 140.292,226.366 138.5,226.5C 137.391,226.557 136.391,226.89 135.5,227.5C 135.5,227.167 135.5,226.833 135.5,226.5C 137.5,225.5 139.5,224.5 141.5,223.5C 142.167,223.5 142.833,223.5 143.5,223.5C 144.5,223.5 145.5,223.5 146.5,223.5C 148.978,222.117 151.645,221.117 154.5,220.5 Z"/></g>
<g><path style="opacity:1" fill="#5b58a2" d="M 77.5,223.5 C 75.9275,224.687 74.2608,225.687 72.5,226.5C 69.5,226.5 66.5,226.5 63.5,226.5C 68.0998,225.666 72.7665,224.666 77.5,223.5 Z"/></g>
<g><path style="opacity:1" fill="#313291" d="M 109.5,217.5 C 109.423,218.75 108.756,219.583 107.5,220C 108.766,220.309 109.933,220.809 111,221.5C 113.777,218.709 115.277,219.375 115.5,223.5C 116.552,223.351 117.552,223.517 118.5,224C 116.325,224.229 114.325,225.395 112.5,227.5C 113.569,230.539 114.735,233.539 116,236.5C 116.908,238.439 118.408,239.439 120.5,239.5C 123.44,225.198 124.773,225.198 124.5,239.5C 125.5,239.5 126.5,239.5 127.5,239.5C 127.5,238.5 127.5,237.5 127.5,236.5C 128.552,236.649 129.552,236.483 130.5,236C 132.35,232.534 131.35,230.701 127.5,230.5C 127.338,228.473 127.505,226.473 128,224.5C 128.368,225.91 129.201,226.91 130.5,227.5C 131.622,226.37 132.956,225.703 134.5,225.5C 134.5,225.833 134.5,226.167 134.5,226.5C 133.833,226.5 133.5,226.833 133.5,227.5C 132.505,238.654 132.172,249.988 132.5,261.5C 131.5,261.5 130.5,261.5 129.5,261.5C 127.393,259.273 125.06,257.273 122.5,255.5C 122.155,252.802 120.822,250.802 118.5,249.5C 118.657,248.127 118.49,246.793 118,245.5C 117.114,242.907 115.614,240.907 113.5,239.5C 112.37,237.685 111.704,235.685 111.5,233.5C 104.826,229.541 102.326,231.541 104,239.5C 105.754,243.079 107.254,246.746 108.5,250.5C 105.457,252.095 103.124,251.428 101.5,248.5C 100.833,248.5 100.167,248.5 99.5,248.5C 98.7377,246.738 97.4044,245.738 95.5,245.5C 95.5,245.167 95.5,244.833 95.5,244.5C 94.578,242.184 92.9113,240.517 90.5,239.5C 89.7974,237.284 88.4641,235.451 86.5,234C 78.8406,233.5 71.1739,233.334 63.5,233.5C 61.8333,233.5 60.1667,233.5 58.5,233.5C 56.5939,232.518 54.5939,231.518 52.5,230.5C 55.2659,228.871 58.2659,228.205 61.5,228.5C 60.2825,229.161 58.9492,229.828 57.5,230.5C 58.0253,231.192 58.6919,231.692 59.5,232C 70.0081,232.439 80.3414,232.606 90.5,232.5C 91.0724,230.922 91.4057,229.422 91.5,228C 92.5,227.5 93.5,227 94.5,226.5C 95.2575,227.811 96.2575,228.311 97.5,228C 98.8932,225.457 100.393,223.291 102,221.5C 101.667,221.167 101.333,220.833 101,220.5C 100.097,221.701 98.9308,222.535 97.5,223C 92.5111,223.499 87.5111,223.666 82.5,223.5C 82.5,224.5 82.5,225.5 82.5,226.5C 79.1906,225.373 75.8573,225.373 72.5,226.5C 74.2608,225.687 75.9275,224.687 77.5,223.5C 78.1667,223.5 78.8333,223.5 79.5,223.5C 83.1368,223.13 86.4701,222.13 89.5,220.5C 90.1667,220.5 90.8333,220.5 91.5,220.5C 97.5709,219.71 103.571,218.71 109.5,217.5 Z"/></g>
<g><path style="opacity:1" fill="#8183b2" d="M 195.5,229.5 C 195.5,228.5 195.5,227.5 195.5,226.5C 188.745,226.207 182.078,226.54 175.5,227.5C 182.087,225.539 189.087,224.872 196.5,225.5C 196.768,227.099 196.434,228.432 195.5,229.5 Z"/></g>
<g><path style="opacity:1" fill="#7070af" d="M 145.5,227.5 C 152.982,226.508 160.648,226.175 168.5,226.5C 168.768,228.099 168.434,229.432 167.5,230.5C 167.5,229.5 167.5,228.5 167.5,227.5C 160.167,227.5 152.833,227.5 145.5,227.5 Z"/></g>
<g><path style="opacity:1" fill="#504e99" d="M 195.5,229.5 C 194.833,229.833 194.167,230.167 193.5,230.5C 193.5,229.5 193.5,228.5 193.5,227.5C 187.974,227.179 182.64,227.512 177.5,228.5C 176.833,229.5 176.167,230.5 175.5,231.5C 175.5,230.167 175.5,228.833 175.5,227.5C 182.078,226.54 188.745,226.207 195.5,226.5C 195.5,227.5 195.5,228.5 195.5,229.5 Z"/></g>
<g><path style="opacity:1" fill="#2f2f92" d="M 61.5,228.5 C 62.8333,228.5 63.5,227.833 63.5,226.5C 66.5,226.5 69.5,226.5 72.5,226.5C 75.8573,225.373 79.1906,225.373 82.5,226.5C 82.5,225.5 82.5,224.5 82.5,223.5C 87.5111,223.666 92.5111,223.499 97.5,223C 98.9308,222.535 100.097,221.701 101,220.5C 101.333,220.833 101.667,221.167 102,221.5C 100.393,223.291 98.8932,225.457 97.5,228C 96.2575,228.311 95.2575,227.811 94.5,226.5C 93.5,227 92.5,227.5 91.5,228C 91.4057,229.422 91.0724,230.922 90.5,232.5C 80.3414,232.606 70.0081,232.439 59.5,232C 58.6919,231.692 58.0253,231.192 57.5,230.5C 58.9492,229.828 60.2825,229.161 61.5,228.5 Z"/></g>
<g><path style="opacity:1" fill="#2d2e95" d="M 155.5,228.5 C 158.833,228.5 162.167,228.5 165.5,228.5C 164.53,232.735 163.197,236.735 161.5,240.5C 159.987,243.707 157.987,246.707 155.5,249.5C 154.914,249.291 154.414,248.957 154,248.5C 153.502,245.518 153.335,242.518 153.5,239.5C 152.167,239.5 150.833,239.5 149.5,239.5C 149.976,245.064 150.643,250.564 151.5,256C 150.692,257.706 149.359,258.539 147.5,258.5C 147.334,250.826 147.5,243.159 148,235.5C 148.333,234.833 148.667,234.167 149,233.5C 153.485,235.203 155.651,233.536 155.5,228.5 Z"/></g>
<g><path style="opacity:1" fill="#a09bb7" d="M 47.5,228.5 C 47.4226,229.75 46.756,230.583 45.5,231C 46.4158,231.278 47.0825,231.778 47.5,232.5C 41.1009,231.66 41.1009,230.326 47.5,228.5 Z"/></g>
<g><path style="opacity:1" fill="#6063a2" d="M 63.5,226.5 C 63.5,227.833 62.8333,228.5 61.5,228.5C 58.2659,228.205 55.2659,228.871 52.5,230.5C 54.5939,231.518 56.5939,232.518 58.5,233.5C 55.8333,233.167 53.1667,232.833 50.5,232.5C 49.5,232.5 48.5,232.5 47.5,232.5C 47.0825,231.778 46.4158,231.278 45.5,231C 46.756,230.583 47.4226,229.75 47.5,228.5C 50.5176,228.296 53.5176,227.963 56.5,227.5C 58.7638,226.781 61.0971,226.448 63.5,226.5 Z"/></g>
<g><path style="opacity:1" fill="#8f8bc5" d="M 175.5,227.5 C 175.5,228.833 175.5,230.167 175.5,231.5C 174.833,232.5 174.167,233.5 173.5,234.5C 173.171,231.772 173.837,229.438 175.5,227.5 Z"/></g>
<g><path style="opacity:1" fill="#e2e2f3" d="M 60.5,224.5 C 58.9236,225.143 57.5903,226.143 56.5,227.5C 53.5176,227.963 50.5176,228.296 47.5,228.5C 41.1009,230.326 41.1009,231.66 47.5,232.5C 48.5,232.5 49.5,232.5 50.5,232.5C 51.1667,233.167 51.8333,233.833 52.5,234.5C 50.5328,234.261 48.6995,234.594 47,235.5C 45.2663,234.751 43.433,234.251 41.5,234C 40.2404,232.186 40.2404,230.353 41.5,228.5C 47.7671,226.936 54.1004,225.602 60.5,224.5 Z"/></g>
<g><path style="opacity:1" fill="#a1a2ce" d="M 50.5,232.5 C 53.1667,232.833 55.8333,233.167 58.5,233.5C 60.1667,233.5 61.8333,233.5 63.5,233.5C 70.8333,234.167 78.1667,234.833 85.5,235.5C 78.1667,235.5 70.8333,235.5 63.5,235.5C 59.6286,235.815 55.9619,235.482 52.5,234.5C 51.8333,233.833 51.1667,233.167 50.5,232.5 Z"/></g>
<g><path style="opacity:1" fill="#5d5ea4" d="M 63.5,233.5 C 71.1739,233.334 78.8406,233.5 86.5,234C 88.4641,235.451 89.7974,237.284 90.5,239.5C 88.8333,238.167 87.1667,236.833 85.5,235.5C 78.1667,234.833 70.8333,234.167 63.5,233.5 Z"/></g>
<g><path style="opacity:1" fill="#2e3092" d="M 193.5,230.5 C 193.167,231.5 192.5,232.167 191.5,232.5C 189.61,232.297 188.11,232.963 187,234.5C 186.725,237.412 185.891,240.079 184.5,242.5C 182.5,242.5 180.5,242.5 178.5,242.5C 178.5,243.833 178.5,245.167 178.5,246.5C 177.5,246.5 176.5,246.5 175.5,246.5C 175.33,244.152 174.997,241.818 174.5,239.5C 176.301,236.092 177.301,232.425 177.5,228.5C 182.64,227.512 187.974,227.179 193.5,227.5C 193.5,228.5 193.5,229.5 193.5,230.5 Z"/></g>
<g><path style="opacity:1" fill="#474796" d="M 145.5,227.5 C 152.833,227.5 160.167,227.5 167.5,227.5C 167.5,228.5 167.5,229.5 167.5,230.5C 165.95,235.725 163.95,240.725 161.5,245.5C 161.5,243.833 161.5,242.167 161.5,240.5C 163.197,236.735 164.53,232.735 165.5,228.5C 162.167,228.5 158.833,228.5 155.5,228.5C 152.5,228.5 149.5,228.5 146.5,228.5C 146.334,238.839 146.5,249.172 147,259.5C 147.671,260.252 148.504,260.586 149.5,260.5C 149.167,261.167 148.833,261.833 148.5,262.5C 147.5,262.5 146.5,262.5 145.5,262.5C 145.5,250.833 145.5,239.167 145.5,227.5 Z"/></g>
<g><path style="opacity:1" fill="#414190" d="M 191.5,232.5 C 189.902,234.698 188.569,237.031 187.5,239.5C 186.833,240.833 185.833,241.833 184.5,242.5C 185.891,240.079 186.725,237.412 187,234.5C 188.11,232.963 189.61,232.297 191.5,232.5 Z"/></g>
<g><path style="opacity:1" fill="#bec0e2" d="M 111.5,233.5 C 111.704,235.685 112.37,237.685 113.5,239.5C 113.833,240.833 114.167,242.167 114.5,243.5C 112.684,240.814 110.684,238.148 108.5,235.5C 107.795,238.089 107.795,240.756 108.5,243.5C 105.945,240.373 104.945,236.706 105.5,232.5C 107.621,232.325 109.621,232.659 111.5,233.5 Z"/></g>
<g><path style="opacity:1" fill="#7272b0" d="M 195.5,229.5 C 195.5,230.167 195.5,230.833 195.5,231.5C 192.473,233.86 189.806,236.527 187.5,239.5C 188.569,237.031 189.902,234.698 191.5,232.5C 192.5,232.167 193.167,231.5 193.5,230.5C 194.167,230.167 194.833,229.833 195.5,229.5 Z"/></g>
<g><path style="opacity:1" fill="#bbbbe1" d="M 195.5,231.5 C 193.192,234.815 190.859,238.149 188.5,241.5C 186.167,243.5 183.833,245.5 181.5,247.5C 181.557,246.391 181.89,245.391 182.5,244.5C 183.5,244.167 184.167,243.5 184.5,242.5C 185.833,241.833 186.833,240.833 187.5,239.5C 189.806,236.527 192.473,233.86 195.5,231.5 Z"/></g>
<g><path style="opacity:1" fill="#edeff9" d="M 137.5,228.5 C 137.667,241.171 137.5,253.838 137,266.5C 134.599,267.602 132.099,267.769 129.5,267C 128.418,265.67 127.751,264.17 127.5,262.5C 129.696,264.545 132.03,264.878 134.5,263.5C 136.159,252.036 137.159,240.369 137.5,228.5 Z"/></g>
<g><path style="opacity:1" fill="#e8e6f5" d="M 138.5,227.5 C 138.5,227.167 138.5,226.833 138.5,226.5C 140.292,226.366 141.958,226.699 143.5,227.5C 143.5,239.833 143.5,252.167 143.5,264.5C 144.833,264.5 146.167,264.5 147.5,264.5C 148.167,264.5 148.833,264.5 149.5,264.5C 147.039,267.067 144.539,267.067 142,264.5C 141.5,252.171 141.333,239.838 141.5,227.5C 140.5,227.5 139.5,227.5 138.5,227.5 Z"/></g>
<g><path style="opacity:1" fill="#c7c9e7" d="M 63.5,235.5 C 70.8333,235.5 78.1667,235.5 85.5,235.5C 87.1667,236.833 88.8333,238.167 90.5,239.5C 91.422,241.816 93.0887,243.483 95.5,244.5C 95.5,244.833 95.5,245.167 95.5,245.5C 96.2623,247.262 97.5956,248.262 99.5,248.5C 99.5,248.833 99.5,249.167 99.5,249.5C 94.5536,248.177 90.887,245.177 88.5,240.5C 87.675,239.614 86.675,239.281 85.5,239.5C 85.5,238.5 85.5,237.5 85.5,236.5C 77.9809,236.825 70.6476,236.492 63.5,235.5 Z"/></g>
<g><path style="opacity:1" fill="#6c6ba6" d="M 113.5,239.5 C 115.614,240.907 117.114,242.907 118,245.5C 118.49,246.793 118.657,248.127 118.5,249.5C 116.658,247.81 115.325,245.81 114.5,243.5C 114.167,242.167 113.833,240.833 113.5,239.5 Z"/></g>
<g><path style="opacity:1" fill="#615da2" d="M 90.5,239.5 C 92.9113,240.517 94.578,242.184 95.5,244.5C 93.0887,243.483 91.422,241.816 90.5,239.5 Z"/></g>
<g><path style="opacity:1" fill="#504e9b" d="M 133.5,227.5 C 133.5,239.167 133.5,250.833 133.5,262.5C 131.901,262.768 130.568,262.434 129.5,261.5C 130.5,261.5 131.5,261.5 132.5,261.5C 132.172,249.988 132.505,238.654 133.5,227.5 Z"/></g>
<g><path style="opacity:1" fill="#8181bb" d="M 134.5,226.5 C 134.833,226.5 135.167,226.5 135.5,226.5C 135.5,226.833 135.5,227.167 135.5,227.5C 134.505,239.322 134.172,251.322 134.5,263.5C 132.03,264.878 129.696,264.545 127.5,262.5C 126.167,260.5 124.5,258.833 122.5,257.5C 122.5,256.833 122.5,256.167 122.5,255.5C 125.06,257.273 127.393,259.273 129.5,261.5C 130.568,262.434 131.901,262.768 133.5,262.5C 133.5,250.833 133.5,239.167 133.5,227.5C 133.5,226.833 133.833,226.5 134.5,226.5 Z"/></g>
<g><path style="opacity:1" fill="#c7cae6" d="M 138.5,226.5 C 138.5,226.833 138.5,227.167 138.5,227.5C 137.833,227.5 137.5,227.833 137.5,228.5C 137.159,240.369 136.159,252.036 134.5,263.5C 134.172,251.322 134.505,239.322 135.5,227.5C 136.391,226.89 137.391,226.557 138.5,226.5 Z"/></g>
<g><path style="opacity:1" fill="#797aaf" d="M 173.5,236.5 C 173.402,240.752 172.068,244.419 169.5,247.5C 169.5,246.833 169.5,246.167 169.5,245.5C 170.343,242.09 171.676,239.09 173.5,236.5 Z"/></g>
<g><path style="opacity:1" fill="#7174ab" d="M 95.5,245.5 C 97.4044,245.738 98.7377,246.738 99.5,248.5C 97.5956,248.262 96.2623,247.262 95.5,245.5 Z"/></g>
<g><path style="opacity:1" fill="#2c2e99" d="M 101.5,248.5 C 99.3397,245.171 98.0064,241.504 97.5,237.5C 96.8917,234.019 98.2251,232.019 101.5,231.5C 101.335,234.518 101.502,237.518 102,240.5C 103.338,243.318 104.838,245.985 106.5,248.5C 106.167,249.167 105.833,249.833 105.5,250.5C 104.378,249.37 103.044,248.703 101.5,248.5 Z"/></g>
<g><path style="opacity:1" fill="#f0f0f9" d="M 114.5,243.5 C 113.572,247.483 114.905,250.15 118.5,251.5C 118.5,252.167 118.5,252.833 118.5,253.5C 117.5,253.5 116.5,253.5 115.5,253.5C 115.662,255.527 115.495,257.527 115,259.5C 114.275,260.059 113.442,260.392 112.5,260.5C 106.31,258.921 101.977,255.255 99.5,249.5C 100.833,250.167 101.833,251.167 102.5,252.5C 102.953,253.458 103.619,254.292 104.5,255C 107.293,256.654 110.293,257.821 113.5,258.5C 114.753,254.889 114.086,251.556 111.5,248.5C 110.272,247.694 109.272,246.694 108.5,245.5C 108.5,244.833 108.5,244.167 108.5,243.5C 107.795,240.756 107.795,238.089 108.5,235.5C 110.684,238.148 112.684,240.814 114.5,243.5 Z"/></g>
<g><path style="opacity:1" fill="#373791" d="M 177.5,228.5 C 177.301,232.425 176.301,236.092 174.5,239.5C 174.997,241.818 175.33,244.152 175.5,246.5C 176.5,246.5 177.5,246.5 178.5,246.5C 178.5,245.167 178.5,243.833 178.5,242.5C 180.5,242.5 182.5,242.5 184.5,242.5C 184.167,243.5 183.5,244.167 182.5,244.5C 180.946,245.693 179.279,246.86 177.5,248C 176.177,248.816 175.511,249.983 175.5,251.5C 174.833,251.5 174.167,251.5 173.5,251.5C 170.463,253.186 169.13,252.186 169.5,248.5C 169.5,248.167 169.5,247.833 169.5,247.5C 172.068,244.419 173.402,240.752 173.5,236.5C 173.5,235.833 173.5,235.167 173.5,234.5C 174.167,233.5 174.833,232.5 175.5,231.5C 176.167,230.5 176.833,229.5 177.5,228.5 Z"/></g>
<g><path style="opacity:1" fill="#e1e4f6" d="M 188.5,241.5 C 187.962,243.117 187.629,244.784 187.5,246.5C 181.888,247.976 177.221,250.976 173.5,255.5C 173.733,253.938 174.4,252.605 175.5,251.5C 177.228,249.774 179.228,248.441 181.5,247.5C 183.833,245.5 186.167,243.5 188.5,241.5 Z"/></g>
<g><path style="opacity:1" fill="#dadaf0" d="M 114.5,243.5 C 115.325,245.81 116.658,247.81 118.5,249.5C 118.5,250.167 118.5,250.833 118.5,251.5C 114.905,250.15 113.572,247.483 114.5,243.5 Z"/></g>
<g><path style="opacity:1" fill="#31328e" d="M 155.5,228.5 C 155.651,233.536 153.485,235.203 149,233.5C 148.667,234.167 148.333,234.833 148,235.5C 147.5,243.159 147.334,250.826 147.5,258.5C 149.359,258.539 150.692,257.706 151.5,256C 150.643,250.564 149.976,245.064 149.5,239.5C 150.833,239.5 152.167,239.5 153.5,239.5C 153.335,242.518 153.502,245.518 154,248.5C 154.414,248.957 154.914,249.291 155.5,249.5C 157.987,246.707 159.987,243.707 161.5,240.5C 161.5,242.167 161.5,243.833 161.5,245.5C 161.5,246.167 161.5,246.833 161.5,247.5C 159.147,249.86 157.147,252.527 155.5,255.5C 153.304,256.838 151.304,258.505 149.5,260.5C 148.504,260.586 147.671,260.252 147,259.5C 146.5,249.172 146.334,238.839 146.5,228.5C 149.5,228.5 152.5,228.5 155.5,228.5 Z"/></g>
<g><path style="opacity:1" fill="#7878b3" d="M 182.5,244.5 C 181.89,245.391 181.557,246.391 181.5,247.5C 179.228,248.441 177.228,249.774 175.5,251.5C 175.511,249.983 176.177,248.816 177.5,248C 179.279,246.86 180.946,245.693 182.5,244.5 Z"/></g>
<g><path style="opacity:1" fill="#a2a4d2" d="M 168.5,226.5 C 160.648,226.175 152.982,226.508 145.5,227.5C 144.505,239.322 144.172,251.322 144.5,263.5C 145.5,263.5 146.5,263.5 147.5,263.5C 147.5,263.833 147.5,264.167 147.5,264.5C 146.167,264.5 144.833,264.5 143.5,264.5C 143.5,252.167 143.5,239.833 143.5,227.5C 143.611,226.883 143.944,226.383 144.5,226C 152.677,225.177 160.677,225.344 168.5,226.5 Z"/></g>
<g><path style="opacity:1" fill="#56569a" d="M 111.5,233.5 C 109.621,232.659 107.621,232.325 105.5,232.5C 104.945,236.706 105.945,240.373 108.5,243.5C 108.5,244.167 108.5,244.833 108.5,245.5C 108.733,248.542 109.733,251.208 111.5,253.5C 111.53,254.497 111.03,255.164 110,255.5C 107.323,254.778 104.823,253.778 102.5,252.5C 101.833,251.167 100.833,250.167 99.5,249.5C 99.5,249.167 99.5,248.833 99.5,248.5C 100.167,248.5 100.833,248.5 101.5,248.5C 103.124,251.428 105.457,252.095 108.5,250.5C 107.254,246.746 105.754,243.079 104,239.5C 102.326,231.541 104.826,229.541 111.5,233.5 Z"/></g>
<g><path style="opacity:1" fill="#9293cc" d="M 108.5,245.5 C 109.272,246.694 110.272,247.694 111.5,248.5C 111.5,250.167 111.5,251.833 111.5,253.5C 109.733,251.208 108.733,248.542 108.5,245.5 Z"/></g>
<g><path style="opacity:1" fill="#6869a3" d="M 145.5,227.5 C 145.5,239.167 145.5,250.833 145.5,262.5C 146.5,262.5 147.5,262.5 148.5,262.5C 148.5,263.167 148.167,263.5 147.5,263.5C 146.5,263.5 145.5,263.5 144.5,263.5C 144.172,251.322 144.505,239.322 145.5,227.5 Z"/></g>
<g><path style="opacity:1" fill="#a09ec5" d="M 102.5,252.5 C 104.823,253.778 107.323,254.778 110,255.5C 111.03,255.164 111.53,254.497 111.5,253.5C 113.213,254.635 113.88,256.302 113.5,258.5C 110.293,257.821 107.293,256.654 104.5,255C 103.619,254.292 102.953,253.458 102.5,252.5 Z"/></g>
<g><path style="opacity:1" fill="#a2a3cf" d="M 118.5,249.5 C 120.822,250.802 122.155,252.802 122.5,255.5C 122.5,256.167 122.5,256.833 122.5,257.5C 121.527,255.861 120.194,254.527 118.5,253.5C 118.5,252.833 118.5,252.167 118.5,251.5C 118.5,250.833 118.5,250.167 118.5,249.5 Z"/></g>
<g><path style="opacity:1" fill="#5e5ba0" d="M 169.5,248.5 C 169.13,252.186 170.463,253.186 173.5,251.5C 172.473,253.194 171.139,254.527 169.5,255.5C 167.04,253.344 167.04,251.011 169.5,248.5 Z"/></g>
<g><path style="opacity:1" fill="#dddbee" d="M 111.5,248.5 C 114.086,251.556 114.753,254.889 113.5,258.5C 113.88,256.302 113.213,254.635 111.5,253.5C 111.5,251.833 111.5,250.167 111.5,248.5 Z"/></g>
<g><path style="opacity:1" fill="#9292c9" d="M 161.5,247.5 C 161.5,248.167 161.5,248.833 161.5,249.5C 160.599,250.29 159.932,251.29 159.5,252.5C 158.764,254.229 157.43,255.229 155.5,255.5C 157.147,252.527 159.147,249.86 161.5,247.5 Z"/></g>
<g><path style="opacity:1" fill="#a2a1c4" d="M 168.5,245.5 C 168.833,245.5 169.167,245.5 169.5,245.5C 169.5,246.167 169.5,246.833 169.5,247.5C 169.5,247.833 169.5,248.167 169.5,248.5C 167.04,251.011 167.04,253.344 169.5,255.5C 168.432,256.434 167.099,256.768 165.5,256.5C 166.01,253.461 166.677,250.461 167.5,247.5C 167.833,246.833 168.167,246.167 168.5,245.5 Z"/></g>
<g><path style="opacity:1" fill="#cdcce5" d="M 167.5,247.5 C 166.677,250.461 166.01,253.461 165.5,256.5C 167.099,256.768 168.432,256.434 169.5,255.5C 171.139,254.527 172.473,253.194 173.5,251.5C 174.167,251.5 174.833,251.5 175.5,251.5C 174.4,252.605 173.733,253.938 173.5,255.5C 170.785,257.123 167.785,257.79 164.5,257.5C 164.288,253.655 165.288,250.321 167.5,247.5 Z"/></g>
<g><path style="opacity:1" fill="#d3d3f2" d="M 122.5,257.5 C 124.5,258.833 126.167,260.5 127.5,262.5C 124.833,261.833 123.167,260.167 122.5,257.5 Z"/></g>
<g><path style="opacity:1" fill="#6b6fab" d="M 155.5,255.5 C 154.145,258.855 151.811,261.189 148.5,262.5C 148.833,261.833 149.167,261.167 149.5,260.5C 151.304,258.505 153.304,256.838 155.5,255.5 Z"/></g>
<g><path style="opacity:1" fill="#c5c7e7" d="M 159.5,252.5 C 159.762,253.978 159.429,255.311 158.5,256.5C 155.486,259.183 152.486,261.849 149.5,264.5C 148.833,264.5 148.167,264.5 147.5,264.5C 147.5,264.167 147.5,263.833 147.5,263.5C 148.167,263.5 148.5,263.167 148.5,262.5C 151.811,261.189 154.145,258.855 155.5,255.5C 157.43,255.229 158.764,254.229 159.5,252.5 Z"/></g>
</svg>
